# Blender v2.79 (sub 0) OBJ File: 'barrel.blend'
# www.blender.org
mtllib barrel.mtl
o Cube_Cube.001
v 0.235702 1.000000 -0.902369
v 0.804738 1.000000 -0.471404
v 0.902369 1.000000 0.235702
v 0.471404 1.000000 0.804738
v -0.235702 1.000000 0.902369
v -0.804738 1.000000 0.471404
v -0.333333 3.000000 0.000000
v -0.902369 1.000000 -0.235702
v -0.471405 1.000000 -0.804738
v -0.333333 0.000000 0.000000
v 0.471405 2.000000 -0.804738
v 0.902369 2.000000 -0.235702
v 0.804738 2.000000 0.471405
v 0.235702 2.000000 0.902369
v -0.471405 2.000000 0.804738
v -0.902369 2.000000 0.235702
v 0.569036 3.000000 -0.569036
v -0.569036 3.000000 -0.569036
v -0.569036 3.000000 0.569036
v 0.569036 3.000000 0.569036
v 0.333333 3.000000 0.000000
v -0.804738 2.000000 -0.471404
v -0.235702 2.000000 -0.902369
v -0.000000 0.000000 -0.333333
v 0.804738 0.000000 0.000000
v -0.000000 0.000000 0.804738
v -0.333333 0.000000 0.471404
v 0.471405 0.000000 -0.333333
v 0.353553 0.250000 -0.735702
v 0.436887 2.750000 -0.770220
v -0.000000 1.500000 -0.951185
v 0.672589 1.500000 -0.672589
v 0.829146 0.250000 -0.294628
v 0.794628 2.750000 -0.377961
v 0.951185 1.500000 0.000000
v 0.853553 0.250000 0.235702
v 0.770220 2.750000 0.436887
v 0.672589 1.500000 0.672589
v 0.294628 0.250000 0.829146
v 0.377961 2.750000 0.794628
v -0.000000 1.500000 0.951185
v -0.235702 0.250000 0.853553
v -0.436887 2.750000 0.770220
v -0.672589 1.500000 0.672589
v -0.711294 0.250000 0.412479
v -0.794628 2.750000 0.377961
v -0.951185 1.500000 -0.000000
v -0.735702 0.250000 -0.235702
v -0.770220 2.750000 -0.436887
v -0.672589 1.500000 -0.672589
v -0.294628 0.250000 -0.711294
v -0.377961 2.750000 -0.794628
v 0.353553 1.500000 -0.853553
v 0.853553 1.500000 0.353553
v -0.353553 1.500000 0.853553
v -0.853553 1.500000 0.353553
v 0.475592 3.000000 -0.392259
v -0.475592 3.000000 -0.392259
v -0.475592 3.000000 0.392259
v 0.475592 3.000000 0.392259
v -0.000000 3.000000 0.000000
v -0.853553 1.500000 -0.353553
v -0.353553 1.500000 -0.853553
v -0.083333 0.000000 -0.083333
v 0.294628 0.000000 -0.239890
v 0.672589 0.000000 -0.083333
v -0.083333 0.000000 0.672589
v -0.239890 0.000000 0.294628
v -0.000000 0.400000 -0.827614
v 0.024051 2.795918 -0.834059
v 0.632352 0.400000 -0.604738
v 0.694469 2.375000 -0.590303
v 0.908471 0.625000 -0.073657
v 0.866728 2.722222 0.032736
v 0.596737 0.123457 0.576161
v 0.590303 2.375000 0.694469
v 0.073657 0.625000 0.908471
v -0.024051 2.795918 0.834059
v -0.538071 0.400000 0.699019
v -0.694469 2.375000 0.590302
v -0.827614 0.400000 0.094281
v -0.866728 2.722222 -0.032736
v -0.604738 0.400000 -0.538071
v -0.590303 2.375000 -0.694469
vt 0.624967 0.000131
vt 0.687451 0.000131
vt 0.708279 0.163408
vt 0.437516 0.245047
vt 0.375033 0.245047
vt 0.375033 0.000131
vt 0.208409 0.163409
vt 0.250065 0.000131
vt 0.250065 0.245047
vt 0.592741 0.583165
vt 0.559604 0.670529
vt 0.544877 0.620246
vt 0.398341 0.737326
vt 0.402655 0.762468
vt 0.346272 0.747740
vt 0.083442 0.163409
vt 0.125098 0.000131
vt 0.125098 0.245047
vt 0.749935 0.489964
vt 0.687451 0.489964
vt 0.666623 0.326686
vt 0.510846 0.780877
vt 0.257646 0.534407
vt 0.201262 0.519680
vt 0.150979 0.490225
vt 0.257646 0.747740
vt 0.272373 0.691357
vt 0.301828 0.641074
vt 0.559604 0.747740
vt 0.574332 0.691357
vt 0.603787 0.641074
vt 0.833246 0.163408
vt 0.874902 0.000130
vt 0.874902 0.245047
vt 0.999869 0.000130
vt 0.999870 0.245047
vt 0.958214 0.163408
vt 0.452938 0.791923
vt 0.390454 0.791923
vt 0.937386 0.000130
vt 0.044313 0.534407
vt 0.029585 0.590791
vt 0.000130 0.641074
vt 0.583311 0.163408
vt 0.500000 0.000131
vt 0.562483 0.000131
vt 0.624967 0.245047
vt 0.100696 0.661901
vt 0.011176 0.698982
vt 0.054727 0.611619
vt 0.375033 0.489964
vt 0.291721 0.326686
vt 0.458344 0.163409
vt 0.437516 0.000131
vt 0.500000 0.245047
vt 0.395030 0.501270
vt 0.452938 0.490225
vt 0.473766 0.590791
vt 0.333377 0.163409
vt 0.312549 0.000131
vt 0.445574 0.623296
vt 0.398341 0.670529
vt 0.402655 0.620246
vt 0.313135 0.698982
vt 0.302089 0.641074
vt 0.373200 0.691357
vt 0.874902 0.489964
vt 0.791590 0.326686
vt 0.150979 0.641074
vt 0.198212 0.552185
vt 0.201262 0.620246
vt 0.062614 0.489964
vt 0.041786 0.326686
vt 0.125098 0.489964
vt 0.416688 0.326686
vt 0.187581 0.245047
vt 0.166754 0.326686
vt 0.000130 0.489964
vt 0.000130 0.245047
vt 0.512371 0.623296
vt 0.312549 0.245047
vt 0.916558 0.326686
vt 0.687451 0.245047
vt 0.749935 0.245047
vt 0.103746 0.729962
vt 0.187581 0.000131
vt 0.250065 0.489964
vt 0.187581 0.489964
vt 0.044313 0.747740
vt 0.100696 0.762468
vt 0.150979 0.791923
vt 0.541656 0.326686
vt 0.500000 0.489964
vt 0.247232 0.670529
vt 0.562484 0.489964
vt 0.624967 0.489964
vt 0.749934 0.000131
vt 0.290783 0.583165
vt 0.313135 0.583165
vt 0.559604 0.534407
vt 0.312549 0.489964
vt 0.937386 0.245047
vt 0.812418 0.000130
vt 0.562484 0.245047
vt 0.062614 0.000131
vt 0.015751 0.061360
vt 0.437516 0.489964
vt 0.093071 0.501270
vt 0.208888 0.780877
vt 0.510846 0.501270
vt 0.984249 0.428734
vt 0.346272 0.534407
vt 0.937386 0.489964
vt 0.812419 0.489964
vt 0.213463 0.490225
vt 0.088496 0.791923
vt 0.603787 0.703557
vt 0.000130 0.578590
vt 0.301828 0.703557
vn -0.4767 -0.0571 0.8772
vn -0.8642 -0.1133 -0.4902
vn -0.0310 -0.1116 -0.9933
vn 0.6266 -0.5943 -0.5042
vn -0.6282 -0.6696 0.3962
vn 0.7478 -0.0681 -0.6604
vn -0.1583 0.0527 0.9860
vn 0.1635 -0.9811 -0.1031
vn 0.6662 0.1500 0.7305
vn 0.7305 0.1500 -0.6662
vn 0.9876 -0.1500 -0.0455
vn 0.6909 -0.0883 0.7176
vn 0.9946 -0.0559 0.0874
vn 0.0452 -0.1812 0.9824
vn 0.8065 -0.0525 0.5889
vn -0.7305 0.1500 0.6662
vn -0.9494 -0.1404 0.2809
vn -0.7388 -0.0743 0.6698
vn -0.4479 0.8792 -0.1624
vn 0.3681 -0.7238 -0.5837
vn -0.4867 0.0239 -0.8733
vn -0.8624 -0.1916 -0.4686
vn -0.9937 -0.1094 0.0262
vn -0.5037 -0.8474 -0.1679
vn -0.2789 -0.1832 -0.9427
vn -0.7443 -0.1261 -0.6559
vn 0.0000 -1.0000 0.0000
vn -0.4981 -0.6072 0.6190
vn 0.4867 0.0239 0.8733
vn 0.0000 1.0000 0.0000
vn 0.8781 0.0356 -0.4771
vn -0.9634 0.0314 -0.2660
vn 0.4931 -0.0314 -0.8694
vn 0.9959 0.0703 -0.0570
vn -0.0727 -0.9818 0.1754
vn -0.4931 0.0314 -0.8694
vn 0.7651 0.0559 0.6415
vn -0.4931 -0.0314 0.8694
vn 0.5272 -0.0715 -0.8467
vn 0.0147 0.0903 0.9958
vn 0.4740 -0.1194 -0.8724
vn 0.1583 0.0527 -0.9860
vn -0.2660 0.0314 0.9634
vn -0.6662 0.1500 -0.7305
vn -0.9959 0.0703 0.0570
vn 0.5787 0.7560 0.3059
vn -0.8781 0.0356 0.4771
vn -0.6758 0.6447 -0.3572
vn 0.5955 0.7391 -0.3148
vn -0.6415 0.0559 0.7651
vn -0.6383 0.6920 0.3374
vn -0.5787 0.7560 -0.3059
vn 0.2734 -0.0239 0.9616
vn 0.6758 0.6447 0.3572
vn -0.5955 0.7391 0.3148
vn -0.8733 0.0239 0.4867
vn 0.6383 0.6920 -0.3374
vn 0.4479 0.8792 0.1624
vn -0.5957 -0.7807 0.1889
vn -0.2429 -0.8542 -0.4596
vn -0.4771 0.0356 -0.8781
vn -0.5027 -0.8226 -0.2657
vn -0.0874 -0.0559 0.9946
vn -0.0147 0.0903 -0.9958
vn 0.8694 -0.0314 0.4931
vn -0.7651 0.0559 -0.6415
vn 0.2835 -0.0356 0.9583
vn -0.2660 -0.0314 -0.9634
vn 0.3962 -0.5395 0.7430
vn -0.8694 0.0314 0.4931
vn 0.0455 -0.1500 0.9876
vn 0.9583 -0.0356 -0.2835
vn 0.9616 -0.0239 -0.2734
vn 0.8669 -0.0822 0.4917
vn -0.2646 -0.1077 -0.9583
vn 0.1717 -0.1879 -0.9671
vn 0.9634 -0.0314 -0.2660
vn 0.8733 0.0239 -0.4867
vn 0.8151 -0.1077 -0.5693
vn -0.5010 -0.0405 0.8645
vn 0.9931 -0.0646 0.0979
vn -0.7715 0.0646 -0.6330
vn 0.4931 0.0314 0.8694
vn 0.9634 0.0314 0.2660
vn 0.6081 -0.1178 0.7851
vn 0.2653 0.0819 -0.9607
vn -0.9696 0.0607 -0.2369
vn -0.6330 0.0646 0.7715
vn 0.2660 -0.0314 0.9634
vn -0.9861 -0.0598 0.1549
vn -0.8111 -0.1456 0.5665
vn -0.4634 0.8701 0.1681
vn 0.1966 0.9511 0.2384
vn 0.1883 0.9552 -0.2283
vn 0.2660 0.0314 -0.9634
vn -0.7779 -0.0712 -0.6244
vn -0.9619 -0.2137 -0.1707
vn -0.1315 -0.0656 -0.9891
vn -0.5572 -0.2307 -0.7977
vn 0.1283 -0.9903 0.0531
vn 0.1458 -0.7690 -0.6223
vn -0.1659 0.0570 0.9845
vn 0.9696 0.0607 0.2369
vn 0.6415 0.0559 -0.7651
vn 0.9802 0.1096 -0.1647
vn 0.1957 -0.7623 -0.6169
vn -0.2197 -0.8327 -0.5082
vn 0.6330 0.0646 -0.7715
vn -0.9604 -0.0852 0.2652
vn 0.9720 0.0552 0.2283
vn 0.1106 0.1207 0.9865
vn 0.8694 0.0314 -0.4931
vn -0.1762 -0.8305 -0.5285
vn 0.7715 0.0646 0.6330
vn 0.1659 0.0570 -0.9845
vn 0.8121 -0.0576 0.5807
vn -0.9802 0.1096 0.1647
vn -0.4989 -0.8400 -0.2136
vn 0.6174 0.7847 -0.0553
vn 0.6627 0.1812 0.7266
vn 0.1763 0.8126 -0.5555
vn -0.1478 0.8236 -0.5476
vn 0.1686 -0.9832 -0.0698
vn -0.6351 0.7661 -0.0990
vn -0.6174 0.7847 0.0553
vn -0.6627 0.1812 -0.7266
vn -0.1763 0.8126 0.5555
vn 0.1478 0.8236 0.5476
vn 0.9824 -0.1812 -0.0452
vn 0.6351 0.7661 0.0990
vn 0.4634 0.8701 -0.1681
vn -0.1966 0.9511 -0.2384
vn -0.1883 0.9552 0.2283
vn 0.4771 0.0356 0.8781
vn -0.0979 -0.0646 0.9931
vn -0.5718 -0.6803 0.4584
vn -0.9634 -0.0314 0.2660
vn -0.1106 0.1207 -0.9865
vn -0.2653 0.0819 0.9607
vn 0.0538 -0.9901 0.1299
vn -0.7266 0.1812 0.6627
vn 0.7657 -0.5140 0.3866
vn -0.1078 -0.9794 0.1709
vn 0.7266 0.1812 -0.6627
vn -0.8694 -0.0314 -0.4931
vn 0.5812 -0.6039 -0.5455
vn -0.9720 0.0552 -0.2283
usemtl None
s off
f 79/1/1 42/2/1 5/3/1
f 62/4/2 50/5/2 83/6/2
f 1/7/3 69/8/3 31/9/3
f 71/10/4 66/11/4 28/12/4
f 67/13/5 26/14/5 42/15/5
f 2/16/6 71/17/6 32/18/6
f 78/19/7 43/20/7 15/21/7
f 75/22/8 26/14/8 67/13/8
f 37/23/9 20/24/9 40/25/9
f 30/26/10 17/27/10 34/28/10
f 36/29/11 25/30/11 33/31/11
f 4/32/12 75/33/12 38/34/12
f 73/35/13 35/36/13 3/37/13
f 42/15/14 39/38/14 77/39/14
f 75/33/15 36/40/15 3/37/15
f 43/41/16 19/42/16 46/43/16
f 6/44/17 81/45/17 45/46/17
f 6/44/18 79/1/18 44/47/18
f 7/48/19 82/49/19 59/50/19
f 33/31/20 66/11/20 71/10/20
f 50/5/21 84/51/21 23/52/21
f 8/53/22 83/6/22 48/54/22
f 8/53/23 81/45/23 47/55/23
f 83/56/24 51/57/24 24/58/24
f 9/59/25 69/8/25 51/60/25
f 9/59/26 83/6/26 50/5/26
f 64/61/27 68/62/27 10/63/27
f 79/64/28 45/65/28 27/66/28
f 38/34/29 76/67/29 14/68/29
f 61/69/30 60/70/30 21/71/30
f 34/72/31 12/73/31 72/74/31
f 22/75/32 62/4/32 47/55/32
f 53/76/33 11/77/33 32/18/33
f 12/73/34 74/78/34 35/79/34
f 75/22/35 65/80/35 66/11/35
f 63/81/36 9/59/36 50/5/36
f 76/67/37 38/34/37 13/82/37
f 15/21/38 44/47/38 55/83/38
f 32/18/39 71/17/39 1/7/39
f 14/68/40 78/19/40 41/84/40
f 61/69/30 58/85/30 7/48/30
f 29/86/41 1/7/41 71/17/41
f 70/87/42 30/88/42 11/77/42
f 55/83/43 5/3/43 41/84/43
f 49/89/44 18/90/44 52/91/44
f 16/92/45 82/93/45 47/55/45
f 5/3/38 55/83/38 44/47/38
f 57/94/46 34/28/46 17/27/46
f 46/95/47 16/92/47 80/96/47
f 30/26/48 57/94/48 17/27/48
f 58/85/49 52/91/49 18/90/49
f 80/96/50 44/47/50 15/21/50
f 49/89/51 58/85/51 18/90/51
f 59/50/52 46/43/52 19/42/52
f 41/84/53 77/97/53 4/32/53
f 43/41/54 59/50/54 19/42/54
f 60/70/55 40/25/55 20/24/55
f 44/47/56 80/96/56 16/92/56
f 37/23/57 60/70/57 20/24/57
f 21/71/58 74/98/58 57/94/58
f 81/99/59 10/63/59 68/62/59
f 29/100/60 28/12/60 65/80/60
f 52/101/61 23/52/61 84/51/61
f 68/62/62 27/66/62 45/65/62
f 33/31/20 25/30/20 66/11/20
f 77/97/63 41/84/63 5/3/63
f 23/52/64 70/87/64 31/9/64
f 54/102/65 13/82/65 38/34/65
f 84/51/66 50/5/66 22/75/66
f 65/80/27 64/61/27 24/58/27
f 39/103/67 4/32/67 77/97/67
f 63/81/68 23/52/68 31/9/68
f 26/14/69 75/22/69 39/38/69
f 56/104/70 6/44/70 44/47/70
f 42/15/71 26/14/71 39/38/71
f 33/105/72 2/16/72 73/106/72
f 68/62/27 67/13/27 27/66/27
f 35/79/73 73/106/73 2/16/73
f 66/11/27 65/80/27 28/12/27
f 54/102/74 38/34/74 75/33/74
f 63/81/75 31/9/75 69/8/75
f 1/7/76 29/86/76 69/8/76
f 2/16/77 12/73/77 35/79/77
f 32/18/78 72/74/78 12/73/78
f 2/16/79 33/105/79 71/17/79
f 44/47/80 79/1/80 5/3/80
f 73/35/81 3/37/81 36/40/81
f 84/51/82 22/75/82 49/107/82
f 14/68/83 4/32/83 38/34/83
f 3/37/84 35/36/84 54/102/84
f 4/32/85 39/103/85 75/33/85
f 53/76/86 31/9/86 70/87/86
f 47/55/87 82/93/87 22/75/87
f 80/96/88 15/21/88 43/20/88
f 4/32/89 14/68/89 41/84/89
f 6/44/90 56/104/90 81/45/90
f 6/44/91 45/46/91 79/1/91
f 7/48/92 58/85/92 82/49/92
f 59/50/93 78/108/93 61/69/93
f 61/69/94 70/109/94 58/85/94
f 53/76/95 1/7/95 31/9/95
f 8/53/96 62/4/96 83/6/96
f 8/53/97 48/54/97 81/45/97
f 13/82/84 54/102/84 35/36/84
f 9/59/98 63/81/98 69/8/98
f 9/59/99 51/60/99 83/6/99
f 64/61/100 75/22/100 68/62/100
f 16/92/70 56/104/70 44/47/70
f 69/110/101 24/58/101 51/57/101
f 78/19/102 15/21/102 55/83/102
f 23/52/36 63/81/36 50/5/36
f 35/36/103 74/111/103 13/82/103
f 72/74/104 32/18/104 11/77/104
f 12/73/105 34/72/105 74/78/105
f 69/110/106 65/80/106 24/58/106
f 83/56/107 10/63/107 48/112/107
f 72/74/108 11/77/108 30/88/108
f 56/104/109 47/55/109 81/45/109
f 74/111/110 37/113/110 13/82/110
f 14/68/111 40/114/111 78/19/111
f 12/73/112 2/16/112 32/18/112
f 83/56/113 64/61/113 10/63/113
f 76/67/114 13/82/114 37/113/114
f 70/87/115 11/77/115 53/76/115
f 75/33/116 3/37/116 54/102/116
f 16/92/117 46/95/117 82/93/117
f 68/62/118 45/65/118 81/99/118
f 57/94/119 74/98/119 34/28/119
f 37/23/120 40/25/120 76/115/120
f 30/26/121 70/109/121 57/94/121
f 58/85/122 70/109/122 52/91/122
f 75/22/123 67/13/123 68/62/123
f 49/89/124 82/49/124 58/85/124
f 59/50/125 82/49/125 46/43/125
f 49/89/126 52/91/126 84/116/126
f 43/41/127 78/108/127 59/50/127
f 60/70/128 78/108/128 40/25/128
f 36/29/129 33/31/129 73/117/129
f 37/23/130 74/98/130 60/70/130
f 21/71/131 60/70/131 74/98/131
f 57/94/132 70/109/132 61/69/132
f 61/69/133 78/108/133 60/70/133
f 40/114/134 14/68/134 76/67/134
f 77/97/135 5/3/135 42/2/135
f 67/13/136 42/15/136 79/64/136
f 56/104/137 16/92/137 47/55/137
f 23/52/138 52/101/138 70/87/138
f 53/76/33 32/18/33 1/7/33
f 61/69/30 21/71/30 57/94/30
f 55/83/139 41/84/139 78/19/139
f 65/80/140 75/22/140 64/61/140
f 83/56/24 24/58/24 64/61/24
f 43/41/141 46/43/141 80/118/141
f 25/30/142 36/29/142 75/22/142
f 75/22/143 66/11/143 25/30/143
f 30/26/144 34/28/144 72/119/144
f 62/4/145 22/75/145 50/5/145
f 61/69/30 7/48/30 59/50/30
f 71/10/146 28/12/146 29/100/146
f 82/93/147 49/107/147 22/75/147
f 79/64/28 27/66/28 67/13/28
f 81/99/59 48/112/59 10/63/59
f 8/53/32 47/55/32 62/4/32
f 29/100/60 65/80/60 69/110/60
