# Blender v2.79 (sub 0) OBJ File: 'bee.blend'
# www.blender.org
mtllib bee_wing.mtl
o Circle
v 1.376279 0.000000 -0.755535
v 0.669172 0.000000 -0.534244
v 0.669172 0.000000 0.534244
v 1.376279 0.000000 0.755535
v 2.083386 0.000000 0.534244
v 2.376279 0.000000 -0.000000
v 2.083386 0.000000 -0.534244
v 1.376279 0.056096 -0.755535
v 0.669172 0.056096 -0.534244
v 0.669172 0.056096 0.534244
v 1.376279 0.056096 0.755535
v 2.083386 0.056096 0.534244
v 2.376279 0.056096 -0.000000
v 2.083386 0.056096 -0.534244
vt 0.499996 0.000012
vt 0.645672 0.013425
vt 0.499996 0.013425
vt 0.000012 0.000012
vt 0.177166 0.013424
vt 0.000012 0.013424
vt 0.082265 0.406557
vt 0.926831 0.415300
vt 0.799056 0.809235
vt 0.822828 0.000012
vt 0.999988 0.013425
vt 0.822828 0.013425
vt 0.645672 0.000012
vt 0.177166 0.000012
vt 0.354321 0.013425
vt 0.354321 0.000012
vt 0.087758 0.399067
vt 0.212060 0.004022
vt 0.932368 0.400375
vt 0.498762 0.969847
vt 0.201857 0.803052
vt 0.210040 0.012622
vt 0.807238 0.018804
vt 0.999988 0.000012
vt 0.808066 0.795420
vt 0.509197 0.958669
vt 0.210836 0.794495
vt 0.809290 0.004947
vn -0.8769 0.0000 -0.4807
vn 0.2987 0.0000 0.9544
vn 0.0000 -1.0000 0.0000
vn 0.2987 0.0000 -0.9544
vn -0.2987 0.0000 -0.9544
vn -0.2987 0.0000 0.9544
vn -0.8769 0.0000 0.4807
vn 0.0000 1.0000 0.0000
usemtl None
s off
f 6/1/1 12/2/1 13/3/1
f 2/4/2 8/5/2 9/6/2
f 11/7/3 8/8/3 14/9/3
f 4/10/4 10/11/4 11/12/4
f 5/13/5 11/12/5 12/2/5
f 1/14/6 14/15/6 8/5/6
f 7/16/7 13/3/7 14/15/7
f 1/17/8 2/18/8 4/19/8
f 6/1/1 5/13/1 12/2/1
f 2/4/2 1/14/2 8/5/2
f 13/20/3 12/21/3 14/9/3
f 11/7/3 10/22/3 9/23/3
f 9/23/3 8/8/3 11/7/3
f 14/9/3 12/21/3 11/7/3
f 4/10/4 3/24/4 10/11/4
f 5/13/5 4/10/5 11/12/5
f 1/14/6 7/16/6 14/15/6
f 7/16/7 6/1/7 13/3/7
f 5/25/8 6/26/8 7/27/8
f 7/27/8 1/17/8 4/19/8
f 2/18/8 3/28/8 4/19/8
f 4/19/8 5/25/8 7/27/8
