# Blender v2.79 (sub 0) OBJ File: 'bowl.blend'
# www.blender.org
mtllib bowl.mtl
o Cylinder_Cylinder.001
v 0.000000 0.617316 -0.923880
v 0.000000 0.292893 -0.707107
v 0.000000 0.000000 -0.000000
v 0.500000 1.000000 -0.866025
v 0.461940 0.617316 -0.800103
v 0.353553 0.292893 -0.612372
v 0.191342 0.076120 -0.331414
v 0.866025 1.000000 -0.500000
v 0.800103 0.617316 -0.461940
v 0.612372 0.292893 -0.353553
v 0.331413 0.076120 -0.191342
v 1.000000 1.000000 -0.000000
v 0.923879 0.617316 -0.000000
v 0.707107 0.292893 -0.000000
v 0.382683 0.076120 -0.000000
v 0.866025 1.000000 0.500000
v 0.800103 0.617316 0.461940
v 0.612372 0.292893 0.353553
v 0.331413 0.076120 0.191342
v 0.500000 1.000000 0.866025
v 0.461940 0.617316 0.800103
v 0.353553 0.292893 0.612372
v 0.191342 0.076120 0.331413
v -0.000000 1.000000 1.000000
v -0.000000 0.617316 0.923879
v -0.000000 0.292893 0.707106
v -0.000000 0.076120 0.382683
v -0.500000 1.000000 0.866025
v -0.461940 0.617316 0.800103
v -0.353553 0.292893 0.612372
v -0.191342 0.076120 0.331413
v -0.866025 1.000000 0.500000
v -0.800103 0.617316 0.461940
v -0.612372 0.292893 0.353553
v -0.331413 0.076120 0.191341
v -1.000000 1.000000 -0.000000
v -0.923879 0.617316 -0.000000
v -0.707107 0.292893 -0.000000
v -0.382683 0.076120 -0.000000
v -0.866025 1.000000 -0.500000
v -0.800103 0.617316 -0.461940
v -0.612372 0.292893 -0.353554
v -0.331413 0.076120 -0.191342
v -0.500000 1.000000 -0.866025
v -0.461940 0.617316 -0.800103
v -0.353553 0.292893 -0.612373
v -0.191342 0.076120 -0.331414
v 0.000000 1.000000 -1.000000
v 0.000000 0.076120 -0.382683
v 0.000000 0.931998 -0.810076
v 0.438410 1.000000 -0.759349
v 0.405038 0.931998 -0.701547
v 0.759349 1.000000 -0.438410
v 0.701547 0.931998 -0.405038
v 0.876820 1.000000 -0.000000
v 0.810076 0.931998 -0.000000
v 0.759349 1.000000 0.438410
v 0.701547 0.931998 0.405038
v 0.438410 1.000000 0.759349
v 0.405038 0.931998 0.701546
v -0.000000 1.000000 0.876820
v -0.000000 0.931998 0.810076
v -0.438410 1.000000 0.759349
v -0.405038 0.931998 0.701546
v -0.759349 1.000000 0.438410
v -0.701547 0.931998 0.405038
v -0.876820 1.000000 -0.000000
v -0.810076 0.931998 -0.000000
v -0.759349 1.000000 -0.438410
v -0.701547 0.931998 -0.405038
v -0.438410 1.000000 -0.759349
v -0.405038 0.931998 -0.701547
v 0.000000 1.000000 -0.876820
vt 0.515669 0.834294
vt 0.609390 0.783813
vt 0.625630 0.823025
vt 0.614325 0.530615
vt 0.701780 0.570508
vt 0.690612 0.590133
vt 0.626150 0.872630
vt 0.150264 0.395220
vt 0.010134 0.255090
vt 0.061425 0.343929
vt 0.604963 0.927415
vt 0.392976 0.255090
vt 0.341685 0.343929
vt 0.416755 0.936918
vt 0.395923 0.872797
vt 0.400115 0.820405
vt 0.338587 0.556972
vt 0.349595 0.578984
vt 0.269607 0.627680
vt 0.659065 0.648252
vt 0.764495 0.647236
vt 0.419027 0.780148
vt 0.123017 0.781003
vt 0.102416 0.761800
vt 0.174609 0.676239
vt 0.447018 0.751816
vt 0.480300 0.735187
vt 0.964033 0.915994
vt 0.885885 0.812712
vt 0.908422 0.796355
vt 0.515992 0.730222
vt 0.061426 0.063670
vt 0.252846 0.012379
vt 0.150264 0.012379
vt 0.619970 0.509725
vt 0.520494 0.520428
vt 0.520752 0.500069
vt 0.551298 0.736843
vt 0.392976 0.152508
vt 0.583469 0.754864
vt 0.625400 0.700177
vt 0.573870 0.674531
vt 0.592114 0.617889
vt 0.927679 0.781848
vt 0.849961 0.706512
vt 0.868037 0.692547
vt 0.033135 0.878520
vt 0.014434 0.846567
vt 0.409945 0.692153
vt 0.252846 0.395220
vt 0.329588 0.537607
vt 0.428822 0.527443
vt 0.010135 0.152508
vt 0.669584 0.741865
vt 0.607356 0.555734
vt 0.520115 0.541886
vt 0.434425 0.550429
vt 0.724119 0.874441
vt 0.721829 0.979889
vt 0.341685 0.063670
vt 0.798792 0.610047
vt 0.712220 0.551867
vt 0.276503 0.978177
vt 0.288520 0.864945
vt 0.783521 0.626930
vt 0.084286 0.744654
vt 0.253611 0.607274
vt 0.195886 0.696781
vt 0.424504 0.507234
vt 0.828807 0.723019
vt 0.718267 0.698016
vt 0.768750 0.766364
vt 0.314841 0.680954
vt 0.518978 0.664252
vt 0.521151 0.605119
vt 0.198958 0.829827
vt 0.254980 0.744201
vt 0.703502 0.799417
vt 0.240405 0.589302
vt 0.157877 0.659939
vt 0.319321 0.786464
vt 0.450230 0.612042
vt 0.360945 0.730232
vt 0.999931 0.869430
vt 0.983336 0.889184
vt 0.809945 0.850578
vt 0.000069 0.824460
vt 0.380385 0.637488
vt 0.852339 0.979891
vt 0.140081 0.952869
vt 0.463258 0.670253
vn 0.0522 -0.9794 -0.1948
vn 0.0000 1.0000 -0.0000
vn 0.1426 -0.9794 -0.1426
vn 0.1948 -0.9794 -0.0522
vn 0.1948 -0.9794 0.0522
vn 0.1426 -0.9794 0.1426
vn -0.2542 -0.1887 -0.9486
vn 0.0522 -0.9794 0.1948
vn -0.0522 -0.9794 0.1948
vn -0.1426 -0.9794 0.1426
vn -0.1948 -0.9794 0.0522
vn 0.7010 0.6880 0.1878
vn -0.1948 -0.9794 -0.0522
vn -0.1426 -0.9794 -0.1426
vn -0.0522 -0.9794 -0.1948
vn -0.5941 -0.5423 -0.5941
vn -0.5131 0.6880 0.5131
vn -0.4023 -0.8224 0.4023
vn 0.5131 0.6880 -0.5131
vn 0.1472 -0.8224 -0.5495
vn 0.5131 0.6880 0.5131
vn 0.5495 -0.8224 -0.1472
vn 0.1878 0.6880 0.7010
vn 0.5495 -0.8224 0.1472
vn -0.5131 0.6880 -0.5131
vn -0.4023 -0.8224 -0.4023
vn 0.7010 0.6880 -0.1878
vn 0.2175 -0.5423 -0.8116
vn -0.2542 -0.1887 0.9486
vn -0.8116 -0.5423 -0.2175
vn 0.5941 -0.5423 0.5941
vn -0.1472 -0.8224 -0.5495
vn 0.4023 -0.8224 -0.4023
vn -0.1878 0.6880 -0.7010
vn 0.4023 -0.8224 0.4023
vn 0.2542 -0.1887 -0.9486
vn -0.1878 0.6880 0.7010
vn -0.8116 -0.5423 0.2175
vn 0.1472 -0.8224 0.5495
vn 0.1878 0.6880 -0.7010
vn -0.2175 -0.5423 -0.8116
vn -0.9486 -0.1887 -0.2542
vn -0.9486 -0.1887 0.2542
vn -0.7010 0.6880 0.1878
vn 0.5941 -0.5423 -0.5941
vn 0.2542 -0.1887 0.9486
vn -0.7010 0.6880 -0.1878
vn -0.5941 -0.5423 0.5941
vn 0.8116 -0.5423 -0.2175
vn -0.1472 -0.8224 0.5495
vn 0.9486 -0.1887 0.2542
vn 0.8116 -0.5423 0.2175
vn 0.6944 -0.1887 0.6944
vn -0.6944 -0.1887 0.6944
vn -0.6944 -0.1887 -0.6944
vn -0.5495 -0.8224 -0.1472
vn 0.6944 -0.1887 -0.6944
vn 0.2175 -0.5423 0.8116
vn -0.5495 -0.8224 0.1472
vn 0.9486 -0.1887 -0.2542
vn -0.2175 -0.5423 0.8116
usemtl None
s off
f 3/1/1 49/2/1 7/3/1
f 69/4/2 71/5/2 44/6/2
f 3/1/3 7/3/3 11/7/3
f 66/8/2 70/9/2 68/10/2
f 3/1/4 11/7/4 15/11/4
f 60/12/2 66/8/2 62/13/2
f 3/1/5 15/14/5 19/15/5
f 3/1/6 19/15/6 23/16/6
f 63/17/2 28/18/2 24/19/2
f 45/20/7 44/6/7 48/21/7
f 3/1/8 23/16/8 27/22/8
f 16/23/2 57/24/2 59/25/2
f 3/1/9 27/22/9 31/26/9
f 3/1/10 31/26/10 35/27/10
f 12/28/2 8/29/2 53/30/2
f 3/1/11 35/27/11 39/31/11
f 50/32/2 54/33/2 52/34/2
f 70/35/12 67/36/12 68/37/12
f 3/1/13 39/31/13 43/38/13
f 58/39/2 66/8/2 60/12/2
f 3/1/14 43/38/14 47/40/14
f 3/1/15 47/40/15 49/2/15
f 46/41/16 42/42/16 41/43/16
f 54/44/17 51/45/17 52/46/17
f 16/23/2 12/47/2 55/48/2
f 35/27/18 31/26/18 30/49/18
f 62/13/2 66/8/2 64/50/2
f 66/8/2 50/32/2 70/9/2
f 64/51/19 65/52/19 63/17/19
f 70/9/2 50/32/2 72/53/2
f 7/3/20 49/2/20 2/54/20
f 70/35/21 71/5/21 69/4/21
f 67/36/2 69/4/2 40/55/2
f 67/36/2 36/56/2 32/57/2
f 11/7/22 10/58/22 14/59/22
f 54/33/2 58/39/2 56/60/2
f 50/61/23 71/5/23 72/62/23
f 15/14/24 14/63/24 18/64/24
f 44/6/2 71/5/2 73/65/2
f 58/66/25 59/25/25 57/24/25
f 50/32/2 58/39/2 54/33/2
f 61/67/2 24/19/2 20/68/2
f 47/40/26 43/38/26 42/42/26
f 68/37/27 65/52/27 66/69/27
f 8/29/2 4/70/2 51/45/2
f 51/45/2 4/70/2 48/21/2
f 2/54/28 1/71/28 5/72/28
f 25/73/29 24/19/29 28/18/29
f 38/74/30 37/75/30 41/43/30
f 18/64/31 17/76/31 21/77/31
f 47/40/32 46/41/32 2/54/32
f 11/7/33 7/3/33 6/78/33
f 62/79/34 59/25/34 60/80/34
f 19/15/35 18/64/35 22/81/35
f 5/72/36 1/71/36 48/21/36
f 50/61/37 52/46/37 51/45/37
f 38/74/38 33/82/38 37/75/38
f 23/16/39 26/83/39 27/22/39
f 62/79/40 63/17/40 61/67/40
f 46/41/41 45/20/41 1/71/41
f 37/75/42 40/55/42 41/43/42
f 33/82/43 32/57/43 36/56/43
f 56/84/44 55/85/44 53/30/44
f 9/86/45 10/58/45 6/78/45
f 21/77/46 20/68/46 24/19/46
f 57/24/47 55/48/47 56/87/47
f 33/82/48 30/49/48 29/88/48
f 14/59/49 9/86/49 13/89/49
f 27/22/50 26/83/50 30/49/50
f 13/90/51 16/23/51 17/76/51
f 14/63/52 17/76/52 18/64/52
f 28/18/2 65/52/2 32/57/2
f 21/77/53 16/23/53 20/68/53
f 29/88/54 28/18/54 32/57/54
f 41/43/55 44/6/55 45/20/55
f 43/38/56 39/31/56 38/74/56
f 5/72/57 8/29/57 9/86/57
f 22/81/58 21/77/58 25/73/58
f 5/72/57 4/70/57 8/29/57
f 22/81/58 25/73/58 26/83/58
f 43/38/56 38/74/56 42/42/56
f 29/88/54 32/57/54 33/82/54
f 27/22/50 30/49/50 31/26/50
f 21/77/46 24/19/46 25/73/46
f 9/86/45 6/78/45 5/72/45
f 41/43/55 40/55/55 44/6/55
f 33/82/43 36/56/43 37/75/43
f 46/41/41 1/71/41 2/54/41
f 21/77/53 17/76/53 16/23/53
f 28/18/2 63/17/2 65/52/2
f 62/79/40 64/51/40 63/17/40
f 8/29/2 51/45/2 53/30/2
f 68/37/27 67/36/27 65/52/27
f 14/63/52 13/90/52 17/76/52
f 13/90/51 12/47/51 16/23/51
f 14/59/49 10/58/49 9/86/49
f 47/40/26 42/42/26 46/41/26
f 58/66/25 60/80/25 59/25/25
f 15/14/24 18/64/24 19/15/24
f 50/61/23 73/65/23 71/5/23
f 33/82/48 34/91/48 30/49/48
f 11/7/22 14/59/22 15/11/22
f 70/35/21 72/62/21 71/5/21
f 57/24/47 56/87/47 58/66/47
f 56/84/44 53/30/44 54/44/44
f 7/3/20 2/54/20 6/78/20
f 64/51/19 66/69/19 65/52/19
f 37/75/42 36/56/42 40/55/42
f 35/27/18 30/49/18 34/91/18
f 54/44/17 53/30/17 51/45/17
f 35/27/59 38/74/59 39/31/59
f 62/79/34 61/67/34 59/25/34
f 11/7/33 6/78/33 10/58/33
f 18/64/31 21/77/31 22/81/31
f 38/74/30 41/43/30 42/42/30
f 19/15/35 22/81/35 23/16/35
f 23/16/39 22/81/39 26/83/39
f 38/74/38 34/91/38 33/82/38
f 13/89/60 8/29/60 12/28/60
f 50/61/37 51/45/37 73/65/37
f 25/73/29 28/18/29 29/88/29
f 46/41/16 41/43/16 45/20/16
f 47/40/32 2/54/32 49/2/32
f 5/72/36 48/21/36 4/70/36
f 2/54/28 5/72/28 6/78/28
f 26/83/61 29/88/61 30/49/61
f 58/39/2 50/32/2 66/8/2
f 45/20/7 48/21/7 1/71/7
f 69/4/2 44/6/2 40/55/2
f 67/36/2 40/55/2 36/56/2
f 16/23/2 55/48/2 57/24/2
f 61/67/2 20/68/2 59/25/2
f 51/45/2 48/21/2 73/65/2
f 63/17/2 24/19/2 61/67/2
f 35/27/59 34/91/59 38/74/59
f 44/6/2 73/65/2 48/21/2
f 12/28/2 53/30/2 55/85/2
f 26/83/61 25/73/61 29/88/61
f 67/36/2 32/57/2 65/52/2
f 16/23/2 59/25/2 20/68/2
f 13/89/60 9/86/60 8/29/60
f 70/35/12 69/4/12 67/36/12
