# Blender v2.79 (sub 0) OBJ File: 'bullet.blend'
# www.blender.org
mtllib bullet.mtl
o Cube_Cube.001
v 0.000000 -0.187002 -0.323897
v 0.000000 -0.374004 -0.000000
v -0.000000 0.374004 -0.000000
v 0.109917 0.323897 -0.151288
v 0.190382 0.187002 -0.262038
v 0.219834 -0.000000 -0.302576
v 0.190382 -0.187002 -0.262038
v 0.109917 -0.323897 -0.151288
v 0.177849 0.323897 -0.057787
v 0.308044 0.187002 -0.100090
v 0.355699 -0.000000 -0.115574
v 0.308044 -0.187002 -0.100090
v 0.177849 -0.323897 -0.057787
v 0.177849 0.323897 0.057787
v 0.308044 0.187002 0.100090
v 0.355699 -0.000000 0.115574
v 0.308044 -0.187002 0.100090
v 0.177849 -0.323897 0.057787
v 0.109917 0.323897 0.151288
v 0.190382 0.187002 0.262038
v 0.219834 -0.000000 0.302576
v 0.190382 -0.187002 0.262038
v 0.109917 -0.323897 0.151288
v 0.000000 0.323897 0.187002
v 0.000000 0.187002 0.323897
v -0.000000 -0.000000 0.374004
v -0.000000 -0.187002 0.323897
v 0.000000 -0.323897 0.187002
v -0.109917 0.323897 0.151288
v -0.190382 0.187002 0.262038
v -0.219834 -0.000000 0.302576
v -0.190382 -0.187002 0.262038
v -0.109917 -0.323897 0.151288
v -0.177849 0.323897 0.057787
v -0.308044 0.187002 0.100090
v -0.355699 -0.000000 0.115574
v -0.308044 -0.187002 0.100090
v -0.177849 -0.323897 0.057787
v -0.177849 0.323897 -0.057787
v -0.308044 0.187002 -0.100090
v -0.355699 -0.000000 -0.115574
v -0.308044 -0.187002 -0.100090
v -0.177849 -0.323897 -0.057787
v -0.109917 0.323897 -0.151288
v -0.190382 0.187002 -0.262038
v -0.219834 -0.000000 -0.302576
v -0.190382 -0.187002 -0.262038
v -0.109917 -0.323897 -0.151288
v -0.000000 0.323897 -0.187002
v -0.000000 0.187002 -0.323897
v -0.000000 -0.000000 -0.374004
v -0.000000 -0.323897 -0.187002
vn 0.0838 -0.9625 -0.2579
vn 0.2994 -0.2469 -0.9216
vn 0.2239 0.6892 -0.6892
vn 0.2239 -0.6892 -0.6892
vn 0.2994 0.2469 -0.9216
vn 0.0838 0.9625 -0.2579
vn 0.5862 0.6892 -0.4259
vn 0.5862 -0.6892 -0.4259
vn 0.7840 0.2469 -0.5696
vn 0.2194 0.9625 -0.1594
vn 0.2194 -0.9625 -0.1594
vn 0.7840 -0.2469 -0.5696
vn 0.7246 -0.6892 -0.0000
vn 0.9690 0.2469 0.0000
vn 0.2712 0.9625 0.0000
vn 0.2712 -0.9625 -0.0000
vn 0.9690 -0.2469 0.0000
vn 0.7246 0.6892 0.0000
vn 0.5862 -0.6892 0.4259
vn 0.7840 0.2469 0.5696
vn 0.2194 0.9625 0.1594
vn 0.2194 -0.9625 0.1594
vn 0.7840 -0.2469 0.5696
vn 0.5862 0.6892 0.4259
vn 0.2239 -0.6892 0.6892
vn 0.2994 0.2469 0.9216
vn 0.0838 0.9625 0.2579
vn 0.0838 -0.9625 0.2579
vn 0.2994 -0.2469 0.9216
vn 0.2239 0.6892 0.6892
vn -0.2239 -0.6892 0.6892
vn -0.2994 0.2469 0.9216
vn -0.0838 0.9625 0.2579
vn -0.0838 -0.9625 0.2579
vn -0.2994 -0.2469 0.9216
vn -0.2239 0.6892 0.6892
vn -0.7840 0.2469 0.5696
vn -0.2194 0.9625 0.1594
vn -0.2194 -0.9625 0.1594
vn -0.7840 -0.2469 0.5696
vn -0.5862 0.6892 0.4259
vn -0.5862 -0.6892 0.4259
vn -0.2712 0.9625 0.0000
vn -0.2712 -0.9625 0.0000
vn -0.9690 -0.2469 0.0000
vn -0.7246 0.6892 0.0000
vn -0.7246 -0.6892 0.0000
vn -0.9690 0.2469 0.0000
vn -0.2194 -0.9625 -0.1594
vn -0.7840 -0.2469 -0.5696
vn -0.5862 0.6892 -0.4259
vn -0.5862 -0.6892 -0.4259
vn -0.7840 0.2469 -0.5696
vn -0.2194 0.9625 -0.1594
vn -0.0838 -0.9625 -0.2579
vn -0.2994 -0.2469 -0.9216
vn -0.2239 0.6892 -0.6892
vn -0.2239 -0.6892 -0.6892
vn -0.2994 0.2469 -0.9216
vn -0.0838 0.9625 -0.2579
usemtl None
s off
f 2//1 52//1 8//1
f 51//2 7//2 1//2
f 50//3 4//3 5//3
f 1//4 8//4 52//4
f 50//5 6//5 51//5
f 49//6 3//6 4//6
f 5//7 9//7 10//7
f 7//8 13//8 8//8
f 5//9 11//9 6//9
f 4//10 3//10 9//10
f 2//11 8//11 13//11
f 7//12 11//12 12//12
f 12//13 18//13 13//13
f 10//14 16//14 11//14
f 9//15 3//15 14//15
f 2//16 13//16 18//16
f 11//17 17//17 12//17
f 9//18 15//18 10//18
f 17//19 23//19 18//19
f 15//20 21//20 16//20
f 14//21 3//21 19//21
f 2//22 18//22 23//22
f 16//23 22//23 17//23
f 14//24 20//24 15//24
f 22//25 28//25 23//25
f 21//26 25//26 26//26
f 19//27 3//27 24//27
f 2//28 23//28 28//28
f 22//29 26//29 27//29
f 19//30 25//30 20//30
f 27//31 33//31 28//31
f 26//32 30//32 31//32
f 24//33 3//33 29//33
f 2//34 28//34 33//34
f 27//35 31//35 32//35
f 25//36 29//36 30//36
f 30//37 36//37 31//37
f 29//38 3//38 34//38
f 2//39 33//39 38//39
f 31//40 37//40 32//40
f 29//41 35//41 30//41
f 32//42 38//42 33//42
f 34//43 3//43 39//43
f 2//44 38//44 43//44
f 37//45 41//45 42//45
f 34//46 40//46 35//46
f 37//47 43//47 38//47
f 35//48 41//48 36//48
f 2//49 43//49 48//49
f 42//50 46//50 47//50
f 39//51 45//51 40//51
f 43//52 47//52 48//52
f 40//53 46//53 41//53
f 39//54 3//54 44//54
f 2//55 48//55 52//55
f 46//56 1//56 47//56
f 45//57 49//57 50//57
f 47//58 52//58 48//58
f 45//59 51//59 46//59
f 44//60 3//60 49//60
f 51//2 6//2 7//2
f 50//3 49//3 4//3
f 1//4 7//4 8//4
f 50//5 5//5 6//5
f 5//7 4//7 9//7
f 7//8 12//8 13//8
f 5//9 10//9 11//9
f 7//12 6//12 11//12
f 12//13 17//13 18//13
f 10//14 15//14 16//14
f 11//17 16//17 17//17
f 9//18 14//18 15//18
f 17//19 22//19 23//19
f 15//20 20//20 21//20
f 16//23 21//23 22//23
f 14//24 19//24 20//24
f 22//25 27//25 28//25
f 21//26 20//26 25//26
f 22//29 21//29 26//29
f 19//30 24//30 25//30
f 27//31 32//31 33//31
f 26//32 25//32 30//32
f 27//35 26//35 31//35
f 25//36 24//36 29//36
f 30//37 35//37 36//37
f 31//40 36//40 37//40
f 29//41 34//41 35//41
f 32//42 37//42 38//42
f 37//45 36//45 41//45
f 34//46 39//46 40//46
f 37//47 42//47 43//47
f 35//48 40//48 41//48
f 42//50 41//50 46//50
f 39//51 44//51 45//51
f 43//52 42//52 47//52
f 40//53 45//53 46//53
f 46//56 51//56 1//56
f 45//57 44//57 49//57
f 47//58 1//58 52//58
f 45//59 50//59 51//59
