# Blender v2.79 (sub 0) OBJ File: 'chocolate.blend'
# www.blender.org
mtllib chocolate.mtl
o Cube
v -0.122418 1.000000 0.429408
v -0.122418 1.000000 -0.429408
v 0.122418 1.000000 0.429408
v 0.122418 1.000000 -0.429408
v -0.122418 0.830490 0.426137
v -0.122418 0.830490 -0.426137
v 0.122418 0.830490 -0.426137
v 0.122418 0.830490 0.426137
v -0.038087 0.938998 0.412288
v -0.038087 0.938998 -0.412288
v 0.038087 0.938998 -0.412288
v 0.038087 0.938998 0.412288
v -0.130853 0.000000 0.455497
v -0.122418 -1.000000 0.429408
v -0.130853 0.000000 -0.455497
v -0.122418 -1.000000 -0.429408
v 0.130853 0.000000 0.455497
v 0.122418 -1.000000 0.429408
v 0.130853 0.000000 -0.455497
v 0.122418 -1.000000 -0.429408
v -0.122418 -0.830490 0.426137
v -0.122418 -0.830490 -0.426137
v 0.122418 -0.830490 -0.426137
v 0.122418 -0.830490 0.426137
v -0.038087 -0.938998 0.412288
v -0.038087 -0.938998 -0.412288
v 0.038087 -0.938998 -0.412288
v 0.038087 -0.938998 0.412288
vt 0.968313 0.640204
vt 0.913838 0.720135
vt 0.913838 0.598208
vt 0.999865 0.846816
vt 0.968313 0.926748
vt 0.968313 0.888813
vt 0.261328 0.956666
vt 0.680489 1.008498
vt 0.269854 1.008499
vt 0.999865 0.829435
vt 0.968313 0.909367
vt 0.968313 0.871432
vt 0.913838 0.615588
vt 0.500000 0.741716
vt 0.500000 0.611388
vt 0.000069 0.699489
vt 0.071047 0.266459
vt 0.071046 0.706641
vt 0.500000 0.594008
vt 0.086162 0.720138
vt 0.086162 0.598210
vt 0.928953 0.706643
vt 0.500001 0.251296
vt 0.928954 0.266461
vt 0.031687 0.695520
vt 0.086162 0.615589
vt 0.086162 0.737516
vt 0.000069 0.701388
vt 0.071046 0.268358
vt 0.071046 0.708540
vt 0.999930 0.699491
vt 0.999931 0.273614
vt 0.689015 0.956005
vt 0.269854 1.007837
vt 0.261328 0.956005
vt 0.031687 0.926748
vt 0.000134 0.846817
vt 0.031687 0.888813
vt 0.689015 0.834739
vt 0.269854 0.782907
vt 0.680489 0.782906
vt 0.031687 0.909370
vt 0.000134 0.829439
vt 0.031687 0.871435
vt 0.500000 0.724337
vt 0.689015 0.834077
vt 0.500000 0.253194
vt 0.500000 0.723705
vt 0.499999 0.721806
vt 0.928954 0.708540
vt 0.928954 0.268358
vt 0.968313 0.657585
vt 0.913838 0.737516
vt 0.999931 0.701388
vt 0.999931 0.275510
vt 0.031687 0.678142
vt 0.261328 0.834077
vt 0.680489 0.782245
vt 0.999865 0.968744
vt 0.999866 0.951363
vt 0.000134 0.968745
vt 0.000135 0.951366
vt 0.261328 0.834739
vt 0.689015 0.956666
vt 0.968313 0.678138
vt 0.000070 0.273611
vt 0.031687 0.657585
vt 0.000069 0.275510
vt 0.680489 1.007837
vt 0.968313 0.695520
vt 0.031687 0.640207
vt 0.269854 0.782245
vt 0.402256 0.626309
vt 0.316667 0.328374
vt 0.316667 0.626309
vt 0.402256 0.328374
vn 0.0000 0.1266 0.9920
vn 0.0000 -0.2702 -0.9628
vn 0.5861 0.8102 0.0000
vn 0.0000 -0.2702 0.9628
vn 0.0000 0.0353 -0.9994
vn 0.7896 -0.6136 0.0000
vn 0.0000 -0.0353 0.9994
vn 0.9999 0.0102 0.0000
vn 0.0000 -0.1266 -0.9920
vn -0.7896 -0.6136 0.0000
vn 0.7896 0.6136 0.0000
vn -0.5861 -0.8102 0.0000
vn 0.0000 0.2702 -0.9628
vn -0.5861 0.8102 0.0000
vn 0.0000 0.2702 0.9628
vn 0.0000 0.0353 0.9994
vn 0.0000 1.0000 0.0000
vn 0.0000 -0.0353 -0.9994
vn -0.9999 -0.0102 0.0000
vn 0.9999 -0.0102 0.0000
vn -0.9999 0.0102 0.0000
vn 0.0000 0.1266 -0.9920
vn -0.7896 0.6136 0.0000
vn 0.0000 -0.1266 0.9920
vn 0.5861 -0.8102 0.0000
vn 0.0000 -1.0000 0.0000
usemtl Material
s off
f 12/1/1 5/2/1 8/3/1
f 2/4/2 11/5/2 10/6/2
f 18/7/3 27/8/3 28/9/3
f 3/10/4 9/11/4 12/12/4
f 6/13/5 19/14/5 15/15/5
f 28/16/6 23/17/6 24/18/6
f 17/19/7 21/20/7 24/21/7
f 8/22/8 19/23/8 7/24/8
f 27/25/9 22/26/9 23/27/9
f 26/28/10 21/29/10 22/30/10
f 12/31/11 7/24/11 11/32/11
f 2/33/12 9/34/12 1/35/12
f 27/36/13 16/37/13 26/38/13
f 16/39/14 25/40/14 26/41/14
f 25/42/15 18/43/15 28/44/15
f 8/3/16 13/45/16 17/19/16
f 1/35/17 4/46/17 2/33/17
f 15/15/18 23/27/18 22/26/18
f 22/30/19 13/47/19 15/48/19
f 24/18/20 19/23/20 17/49/20
f 6/50/21 13/47/21 5/51/21
f 10/52/22 7/53/22 6/13/22
f 10/54/23 5/51/23 9/55/23
f 25/56/24 24/21/24 21/20/24
f 3/57/25 11/58/25 4/46/25
f 2/4/2 4/59/2 11/5/2
f 3/10/4 1/60/4 9/11/4
f 27/36/13 20/61/13 16/37/13
f 25/42/15 14/62/15 18/43/15
f 14/63/26 20/64/26 18/7/26
f 12/1/1 9/65/1 5/2/1
f 18/7/3 20/64/3 27/8/3
f 6/13/5 7/53/5 19/14/5
f 28/16/6 27/66/6 23/17/6
f 17/19/7 13/45/7 21/20/7
f 8/22/8 17/49/8 19/23/8
f 27/25/9 26/67/9 22/26/9
f 26/28/10 25/68/10 21/29/10
f 12/31/11 8/22/11 7/24/11
f 2/33/12 10/69/12 9/34/12
f 16/39/14 14/63/14 25/40/14
f 8/3/16 5/2/16 13/45/16
f 1/35/17 3/57/17 4/46/17
f 15/15/18 19/14/18 23/27/18
f 22/30/19 21/29/19 13/47/19
f 24/18/20 23/17/20 19/23/20
f 6/50/21 15/48/21 13/47/21
f 10/52/22 11/70/22 7/53/22
f 10/54/23 6/50/23 5/51/23
f 25/56/24 28/71/24 24/21/24
f 3/57/25 12/72/25 11/58/25
f 14/63/26 16/39/26 20/64/26
usemtl Material_NONE
f 17/73/17 15/74/17 13/75/17
f 17/73/17 19/76/17 15/74/17
