# Blender v2.79 (sub 0) OBJ File: 'door.blend'
# www.blender.org
mtllib door.mtl
o Cube
v -0.512079 0.000000 2.000000
v -0.512079 7.000000 2.000000
v -0.512079 0.000000 -2.000000
v -0.512079 7.000000 -2.000000
v 0.512079 0.000000 2.000000
v 0.512079 7.000000 2.000000
v 0.512079 0.000000 -2.000000
v 0.512079 7.000000 -2.000000
vt 0.000000 0.000000
vt 1.000000 1.000000
vt 0.000000 1.000000
vt 0.046572 0.500000
vt 0.000022 0.181832
vt 0.046572 0.181832
vt 1.000000 1.000000
vt 0.000000 0.000000
vt 1.000000 0.000000
vt 0.000022 0.681810
vt 0.046572 0.999978
vt 0.000022 0.999978
vt 0.046572 0.000022
vt 0.000022 0.500000
vt 1.000000 0.000000
vt 0.000000 1.000000
vt 0.046572 0.681810
vn -1.0000 0.0000 0.0000
vn 0.0000 0.0000 -1.0000
vn 1.0000 0.0000 0.0000
vn 0.0000 0.0000 1.0000
vn 0.0000 -1.0000 0.0000
vn 0.0000 1.0000 0.0000
usemtl None
s off
f 2/1/1 3/2/1 1/3/1
f 4/4/2 7/5/2 3/6/2
f 8/7/3 5/8/3 7/9/3
f 6/10/4 1/11/4 5/12/4
f 7/5/5 1/13/5 3/6/5
f 4/4/6 6/10/6 8/14/6
f 2/1/1 4/15/1 3/2/1
f 4/4/2 8/14/2 7/5/2
f 8/7/3 6/16/3 5/8/3
f 6/10/4 2/17/4 1/11/4
f 7/5/5 5/8/5 1/13/5
f 4/4/6 2/17/6 6/10/6
