# Blender v2.79 (sub 0) OBJ File: 'elevator.blend'
# www.blender.org
mtllib elevator.mtl
o Cube
v -6.000000 0.000000 6.000000
v -6.000000 12.000000 6.000000
v -6.000000 0.000000 -6.000000
v -6.000000 12.000000 -6.000000
v 6.000000 0.000000 3.017155
v 6.000000 9.017156 3.017155
v 6.000000 0.000000 -3.017155
v 6.000000 9.017156 -3.017155
v 6.000000 12.000000 -6.000000
v 6.000000 0.000000 -6.000000
v 6.000000 0.000000 6.000000
v 6.000000 12.000000 6.000000
v 5.400000 9.017156 -3.017155
v 5.400000 0.600000 -3.017155
v 5.400000 0.600000 3.017155
v 5.400000 9.017156 3.017155
v 5.400000 0.600000 -5.417155
v -5.400001 0.600000 -5.417155
v 5.400000 0.600000 5.417155
v -5.400001 0.600000 5.417155
v 5.400000 11.417155 -5.417155
v -5.400001 11.417155 -5.417155
v -5.400001 11.417155 5.417155
v 5.400000 11.417155 5.417155
vt 0.707418 0.723188
vt 0.673062 0.574537
vt 0.683779 0.572852
vt 0.413091 0.217516
vt 0.196130 0.434476
vt 0.196130 0.217516
vt 0.000185 0.217516
vt 0.195760 0.413401
vt 0.000185 0.413401
vt 0.656115 0.466761
vt 0.643192 0.314739
vt 0.666832 0.465076
vt 0.217146 0.217146
vt 0.000185 0.000185
vt 0.217146 0.000185
vt 0.392015 0.630111
vt 0.196130 0.434846
vt 0.392015 0.434846
vt 0.707418 0.226547
vt 0.630791 0.305708
vt 0.695017 0.217516
vt 0.651067 0.000185
vt 0.868028 0.000185
vt 0.704997 0.054115
vt 0.000185 0.804550
vt 0.195760 0.999815
vt 0.000185 0.999815
vt 0.413460 0.434476
vt 0.630421 0.217516
vt 0.630421 0.434476
vt 0.651067 0.217146
vt 0.434106 0.000185
vt 0.434106 0.217146
vt 0.195760 0.608665
vt 0.000185 0.608665
vt 0.043577 0.761158
vt 0.435777 0.434846
vt 0.544878 0.434846
vt 0.588270 0.630111
vt 0.392385 0.630111
vt 0.392385 0.434846
vt 0.588270 0.434846
vt 0.698387 0.735590
vt 0.413091 0.434476
vt 0.195760 0.217516
vt 0.000185 0.217146
vt 0.196130 0.630111
vt 0.704997 0.217146
vt 0.868028 0.217146
vt 0.814098 0.054115
vt 0.814098 0.217146
vt 0.195760 0.804550
vt 0.413460 0.217516
vt 0.043577 0.652057
vt 0.195760 0.652057
vt 0.195760 0.761158
vn 0.0000 0.0000 1.0000
vn 0.0000 1.0000 0.0000
vn 1.0000 0.0000 0.0000
vn 0.0000 0.0000 -1.0000
vn 0.0000 -1.0000 0.0000
vn 0.7071 0.7071 0.0000
vn -1.0000 0.0000 0.0000
usemtl None
s off
f 14/1/1 8/2/1 13/3/1
f 12/4/2 4/5/2 2/6/2
f 23/7/3 18/8/3 22/9/3
f 6/10/4 15/11/4 16/12/4
f 1/13/1 12/14/1 2/15/1
f 21/16/5 23/17/5 22/18/5
f 14/19/6 5/20/6 7/21/6
f 9/22/3 12/23/3 8/24/3
f 24/25/4 20/26/4 23/27/4
f 10/28/5 1/29/5 3/30/5
f 10/31/4 4/32/4 9/22/4
f 3/33/7 2/15/7 4/32/7
f 17/34/1 22/9/1 18/8/1
f 21/35/7 16/36/7 24/25/7
f 15/37/2 14/38/2 18/39/2
f 6/10/5 13/3/5 8/2/5
f 18/39/2 20/40/2 15/37/2
f 19/41/2 15/37/2 20/40/2
f 14/38/2 17/42/2 18/39/2
f 14/1/1 7/43/1 8/2/1
f 12/4/2 9/44/2 4/5/2
f 23/7/3 20/45/3 18/8/3
f 6/10/4 5/20/4 15/11/4
f 1/13/1 11/46/1 12/14/1
f 21/16/5 24/47/5 23/17/5
f 14/19/6 15/11/6 5/20/6
f 7/48/3 10/31/3 8/24/3
f 12/23/3 11/49/3 6/50/3
f 11/49/3 5/51/3 6/50/3
f 8/24/3 10/31/3 9/22/3
f 12/23/3 6/50/3 8/24/3
f 24/25/4 19/52/4 20/26/4
f 10/28/5 11/53/5 1/29/5
f 10/31/4 3/33/4 4/32/4
f 3/33/7 1/13/7 2/15/7
f 17/34/1 21/35/1 22/9/1
f 21/35/7 17/34/7 13/54/7
f 17/34/7 14/55/7 13/54/7
f 15/56/7 19/52/7 16/36/7
f 21/35/7 13/54/7 16/36/7
f 16/36/7 19/52/7 24/25/7
f 6/10/5 16/12/5 13/3/5
