# Blender v2.79 (sub 0) OBJ File: 'enemy.blend'
# www.blender.org
mtllib enemy.mtl
o Cube_Cube.001
v -0.500000 2.000000 0.800000
v -0.500000 4.000000 0.800000
v -0.500000 2.000000 -0.800000
v -0.500000 4.000000 -0.800000
v 0.500000 2.000000 0.800000
v 0.500000 4.000000 0.800000
v 0.500000 2.000000 -0.800000
v 0.500000 4.000000 -0.800000
v -0.450000 0.100000 -0.197437
v -0.450000 1.900000 -0.197437
v -0.450000 0.100000 -0.773437
v -0.450000 1.900000 -0.773437
v 0.450000 0.100000 -0.197437
v 0.450000 1.900000 -0.197437
v 0.450000 0.100000 -0.773437
v 0.450000 1.900000 -0.773437
v -0.450000 0.100000 0.802563
v -0.450000 1.900000 0.802563
v -0.450000 0.100000 0.226563
v -0.450000 1.900000 0.226563
v 0.450000 0.100000 0.802563
v 0.450000 1.900000 0.802563
v 0.450000 0.100000 0.226563
v 0.450000 1.900000 0.226563
v -0.450000 2.100000 -0.964703
v -0.450000 3.900000 -0.964703
v -0.450000 2.100000 -1.540703
v -0.450000 3.900000 -1.540703
v 0.450000 2.100000 -0.964703
v 0.450000 3.900000 -0.964703
v 0.450000 2.100000 -1.540703
v 0.450000 3.900000 -1.540703
v -0.450000 2.100000 1.570109
v -0.450000 3.900000 1.570109
v -0.450000 2.100000 0.994109
v -0.450000 3.900000 0.994109
v 0.450000 2.100000 1.570109
v 0.450000 3.900000 1.570109
v 0.450000 2.100000 0.994109
v 0.450000 3.900000 0.994109
v -0.500000 4.272021 0.439558
v -0.500000 5.113312 0.439558
v -0.500000 4.272021 -0.439558
v -0.500000 5.113312 -0.439558
v 0.500000 4.272021 0.439558
v 0.500000 5.113312 0.439558
v 0.500000 4.272021 -0.439558
v 0.500000 5.113312 -0.439558
vt 0.738806 0.284369
vt 0.511588 0.000346
vt 0.738806 0.000346
vt 0.511588 0.284369
vt 0.369576 0.000346
vt 0.369576 0.284369
vt 0.142358 0.000346
vt 0.142358 0.284369
vt 0.000346 0.000346
vt 0.966718 0.142358
vt 0.739499 0.000346
vt 0.966718 0.000346
vt 0.761970 0.939701
vt 0.534751 0.797689
vt 0.761970 0.797689
vt 0.419564 0.796997
vt 0.337766 0.541376
vt 0.419564 0.541376
vt 0.337766 0.796997
vt 0.209955 0.541376
vt 0.209955 0.796997
vt 0.128157 0.541376
vt 0.128157 0.796997
vt 0.000346 0.541376
vt 0.513666 0.917855
vt 0.385856 0.999654
vt 0.385856 0.917855
vt 0.257353 0.999654
vt 0.385163 0.917855
vt 0.385163 0.999654
vt 0.839475 0.540683
vt 0.757677 0.285062
vt 0.839475 0.285062
vt 0.757677 0.540683
vt 0.629866 0.285062
vt 0.629866 0.540683
vt 0.548068 0.285062
vt 0.548068 0.540683
vt 0.420257 0.285062
vt 0.840168 0.541376
vt 0.921967 0.669186
vt 0.840168 0.669186
vt 0.128849 0.999654
vt 0.256660 0.917855
vt 0.256660 0.999654
vt 0.839475 0.796997
vt 0.757677 0.541376
vt 0.839475 0.541376
vt 0.757677 0.796997
vt 0.629866 0.541376
vt 0.629866 0.796997
vt 0.548068 0.541376
vt 0.548068 0.796997
vt 0.420257 0.541376
vt 0.840168 0.367554
vt 0.921967 0.495364
vt 0.840168 0.495364
vt 0.000346 0.999654
vt 0.128157 0.917855
vt 0.128157 0.999654
vt 0.419564 0.540683
vt 0.337766 0.285062
vt 0.419564 0.285062
vt 0.337766 0.540683
vt 0.209955 0.285062
vt 0.209955 0.540683
vt 0.128157 0.285062
vt 0.128157 0.540683
vt 0.000346 0.285062
vt 0.967978 0.669879
vt 0.840168 0.751678
vt 0.840168 0.669879
vt 0.840168 0.366861
vt 0.967978 0.285062
vt 0.967978 0.366861
vt 0.000346 0.797689
vt 0.125191 0.917162
vt 0.000346 0.917162
vt 0.125191 0.797689
vt 0.267202 0.917162
vt 0.267202 0.797689
vt 0.392047 0.917162
vt 0.392047 0.797689
vt 0.534058 0.917162
vt 0.881511 0.143051
vt 0.739499 0.267895
vt 0.739499 0.143051
vt 0.762662 0.922534
vt 0.904674 0.797689
vt 0.904674 0.922534
vt 0.000346 0.284369
vt 0.739499 0.142358
vt 0.534751 0.939701
vt 0.000346 0.796996
vt 0.513666 0.999654
vt 0.257353 0.917855
vt 0.420257 0.540683
vt 0.921967 0.541376
vt 0.128849 0.917855
vt 0.420257 0.796997
vt 0.921967 0.367554
vt 0.000346 0.917855
vt 0.000346 0.540683
vt 0.967978 0.751678
vt 0.840168 0.285062
vt 0.534059 0.797689
vt 0.881511 0.267895
vt 0.762662 0.797689
vn -1.0000 0.0000 0.0000
vn 0.0000 0.0000 -1.0000
vn 1.0000 0.0000 0.0000
vn 0.0000 0.0000 1.0000
vn 0.0000 -1.0000 0.0000
vn 0.0000 1.0000 0.0000
usemtl SpaceMat
s off
f 2/1/1 3/2/1 1/3/1
f 4/4/2 7/5/2 3/2/2
f 8/6/3 5/7/3 7/5/3
f 6/8/4 1/9/4 5/7/4
f 7/10/5 1/11/5 3/12/5
f 4/13/6 6/14/6 8/15/6
f 10/16/1 11/17/1 9/18/1
f 12/19/2 15/20/2 11/17/2
f 16/21/3 13/22/3 15/20/3
f 14/23/4 9/24/4 13/22/4
f 15/25/5 9/26/5 11/27/5
f 12/28/6 14/29/6 16/30/6
f 18/31/1 19/32/1 17/33/1
f 20/34/2 23/35/2 19/32/2
f 24/36/3 21/37/3 23/35/3
f 22/38/4 17/39/4 21/37/4
f 23/40/5 17/41/5 19/42/5
f 20/43/6 22/44/6 24/45/6
f 26/46/1 27/47/1 25/48/1
f 28/49/2 31/50/2 27/47/2
f 32/51/3 29/52/3 31/50/3
f 30/53/4 25/54/4 29/52/4
f 31/55/5 25/56/5 27/57/5
f 28/58/6 30/59/6 32/60/6
f 34/61/1 35/62/1 33/63/1
f 36/64/2 39/65/2 35/62/2
f 40/66/3 37/67/3 39/65/3
f 38/68/4 33/69/4 37/67/4
f 39/70/5 33/71/5 35/72/5
f 36/73/6 38/74/6 40/75/6
f 42/76/1 43/77/1 41/78/1
f 44/79/2 47/80/2 43/77/2
f 48/81/3 45/82/3 47/80/3
f 46/83/4 41/84/4 45/82/4
f 47/85/5 41/86/5 43/87/5
f 44/88/6 46/89/6 48/90/6
f 2/1/1 4/4/1 3/2/1
f 4/4/2 8/6/2 7/5/2
f 8/6/3 6/8/3 5/7/3
f 6/8/4 2/91/4 1/9/4
f 7/10/5 5/92/5 1/11/5
f 4/13/6 2/93/6 6/14/6
f 10/16/1 12/19/1 11/17/1
f 12/19/2 16/21/2 15/20/2
f 16/21/3 14/23/3 13/22/3
f 14/23/4 10/94/4 9/24/4
f 15/25/5 13/95/5 9/26/5
f 12/28/6 10/96/6 14/29/6
f 18/31/1 20/34/1 19/32/1
f 20/34/2 24/36/2 23/35/2
f 24/36/3 22/38/3 21/37/3
f 22/38/4 18/97/4 17/39/4
f 23/40/5 21/98/5 17/41/5
f 20/43/6 18/99/6 22/44/6
f 26/46/1 28/49/1 27/47/1
f 28/49/2 32/51/2 31/50/2
f 32/51/3 30/53/3 29/52/3
f 30/53/4 26/100/4 25/54/4
f 31/55/5 29/101/5 25/56/5
f 28/58/6 26/102/6 30/59/6
f 34/61/1 36/64/1 35/62/1
f 36/64/2 40/66/2 39/65/2
f 40/66/3 38/68/3 37/67/3
f 38/68/4 34/103/4 33/69/4
f 39/70/5 37/104/5 33/71/5
f 36/73/6 34/105/6 38/74/6
f 42/76/1 44/79/1 43/77/1
f 44/79/2 48/81/2 47/80/2
f 48/81/3 46/83/3 45/82/3
f 46/83/4 42/106/4 41/84/4
f 47/85/5 45/107/5 41/86/5
f 44/88/6 42/108/6 46/89/6
