# Blender v2.79 (sub 0) OBJ File: 'lava_platform.blend'
# www.blender.org
mtllib lava_platform.mtl
o Cylinder
v 0.007090 -0.020028 -5.019701
v 0.007090 0.979972 -5.019701
v 0.982542 -0.020028 -4.923628
v 0.982542 0.979972 -4.923628
v 1.920508 -0.020028 -4.639099
v 1.920508 0.979972 -4.639099
v 2.784941 -0.020028 -4.177050
v 2.784941 0.979972 -4.177050
v 3.542624 -0.020028 -3.555235
v 3.542624 0.979972 -3.555235
v 4.164438 -0.020028 -2.797552
v 4.164438 0.979972 -2.797552
v 4.626488 -0.020028 -1.933118
v 4.626488 0.979972 -1.933118
v 4.911016 -0.020028 -0.995153
v 4.911016 0.979972 -0.995153
v 5.007090 -0.020028 -0.019702
v 5.007090 0.979972 -0.019702
v 4.911016 -0.020028 0.955750
v 4.911016 0.979972 0.955750
v 4.626488 -0.020028 1.893715
v 4.626488 0.979972 1.893715
v 4.164438 -0.020028 2.758150
v 4.164438 0.979972 2.758150
v 3.542624 -0.020028 3.515833
v 3.542624 0.979972 3.515833
v 2.784941 -0.020028 4.137647
v 2.784941 0.979972 4.137647
v 1.920507 -0.020028 4.599697
v 1.920507 0.979972 4.599697
v 0.982541 -0.020028 4.884225
v 0.982541 0.979972 4.884225
v 0.007089 -0.020028 4.980299
v 0.007089 0.979972 4.980299
v -0.968363 -0.020028 4.884224
v -0.968363 0.979972 4.884224
v -1.906329 -0.020028 4.599695
v -1.906329 0.979972 4.599695
v -2.770763 -0.020028 4.137645
v -2.770763 0.979972 4.137645
v -3.528446 -0.020028 3.515831
v -3.528446 0.979972 3.515831
v -4.150260 -0.020028 2.758147
v -4.150260 0.979972 2.758147
v -4.612309 -0.020028 1.893712
v -4.612309 0.979972 1.893712
v -4.896837 -0.020028 0.955746
v -4.896837 0.979972 0.955746
v -4.992910 -0.020028 -0.019706
v -4.992910 0.979972 -0.019706
v -4.896835 -0.020028 -0.995158
v -4.896835 0.979972 -0.995158
v -4.612305 -0.020028 -1.933124
v -4.612305 0.979972 -1.933124
v -4.150255 -0.020028 -2.797558
v -4.150255 0.979972 -2.797558
v -3.528439 -0.020028 -3.555239
v -3.528439 0.979972 -3.555239
v -2.770755 -0.020028 -4.177053
v -2.770755 0.979972 -4.177053
v -1.906320 -0.020028 -4.639102
v -1.906320 0.979972 -4.639102
v -0.968354 -0.020028 -4.923629
v -0.968354 0.979972 -4.923629
vn 0.0980 0.0000 -0.9952
vn 0.2903 0.0000 -0.9569
vn 0.4714 0.0000 -0.8819
vn 0.6344 0.0000 -0.7730
vn 0.7730 0.0000 -0.6344
vn 0.8819 0.0000 -0.4714
vn 0.9569 0.0000 -0.2903
vn 0.9952 0.0000 -0.0980
vn 0.9952 0.0000 0.0980
vn 0.9569 0.0000 0.2903
vn 0.8819 0.0000 0.4714
vn 0.7730 0.0000 0.6344
vn 0.6344 0.0000 0.7730
vn 0.4714 0.0000 0.8819
vn 0.2903 0.0000 0.9569
vn 0.0980 0.0000 0.9952
vn -0.0980 0.0000 0.9952
vn -0.2903 0.0000 0.9569
vn -0.4714 0.0000 0.8819
vn -0.6344 0.0000 0.7730
vn -0.7730 0.0000 0.6344
vn -0.8819 0.0000 0.4714
vn -0.9569 0.0000 0.2903
vn -0.9952 0.0000 0.0980
vn -0.9952 0.0000 -0.0980
vn -0.9569 0.0000 -0.2903
vn -0.8819 0.0000 -0.4714
vn -0.7730 0.0000 -0.6344
vn -0.6344 0.0000 -0.7730
vn -0.4714 0.0000 -0.8819
vn 0.0000 1.0000 -0.0000
vn -0.2903 0.0000 -0.9569
vn -0.0980 0.0000 -0.9952
vn 0.0000 -1.0000 0.0000
usemtl None
s off
f 2//1 3//1 1//1
f 4//2 5//2 3//2
f 6//3 7//3 5//3
f 8//4 9//4 7//4
f 10//5 11//5 9//5
f 12//6 13//6 11//6
f 14//7 15//7 13//7
f 16//8 17//8 15//8
f 18//9 19//9 17//9
f 20//10 21//10 19//10
f 22//11 23//11 21//11
f 24//12 25//12 23//12
f 26//13 27//13 25//13
f 28//14 29//14 27//14
f 30//15 31//15 29//15
f 32//16 33//16 31//16
f 34//17 35//17 33//17
f 36//18 37//18 35//18
f 38//19 39//19 37//19
f 40//20 41//20 39//20
f 42//21 43//21 41//21
f 44//22 45//22 43//22
f 46//23 47//23 45//23
f 48//24 49//24 47//24
f 50//25 51//25 49//25
f 52//26 53//26 51//26
f 54//27 55//27 53//27
f 56//28 57//28 55//28
f 58//29 59//29 57//29
f 60//30 61//30 59//30
f 38//31 22//31 6//31
f 62//32 63//32 61//32
f 64//33 1//33 63//33
f 31//34 55//34 63//34
f 2//1 4//1 3//1
f 4//2 6//2 5//2
f 6//3 8//3 7//3
f 8//4 10//4 9//4
f 10//5 12//5 11//5
f 12//6 14//6 13//6
f 14//7 16//7 15//7
f 16//8 18//8 17//8
f 18//9 20//9 19//9
f 20//10 22//10 21//10
f 22//11 24//11 23//11
f 24//12 26//12 25//12
f 26//13 28//13 27//13
f 28//14 30//14 29//14
f 30//15 32//15 31//15
f 32//16 34//16 33//16
f 34//17 36//17 35//17
f 36//18 38//18 37//18
f 38//19 40//19 39//19
f 40//20 42//20 41//20
f 42//21 44//21 43//21
f 44//22 46//22 45//22
f 46//23 48//23 47//23
f 48//24 50//24 49//24
f 50//25 52//25 51//25
f 52//26 54//26 53//26
f 54//27 56//27 55//27
f 56//28 58//28 57//28
f 58//29 60//29 59//29
f 60//30 62//30 61//30
f 6//31 4//31 2//31
f 2//31 64//31 62//31
f 62//31 60//31 58//31
f 58//31 56//31 54//31
f 54//31 52//31 50//31
f 50//31 48//31 46//31
f 46//31 44//31 38//31
f 42//31 40//31 38//31
f 38//31 36//31 34//31
f 34//31 32//31 38//31
f 30//31 28//31 26//31
f 26//31 24//31 22//31
f 22//31 20//31 18//31
f 18//31 16//31 14//31
f 14//31 12//31 10//31
f 10//31 8//31 6//31
f 6//31 2//31 54//31
f 62//31 58//31 54//31
f 54//31 50//31 46//31
f 44//31 42//31 38//31
f 38//31 32//31 30//31
f 30//31 26//31 38//31
f 22//31 18//31 14//31
f 14//31 10//31 22//31
f 2//31 62//31 54//31
f 54//31 46//31 6//31
f 38//31 26//31 22//31
f 22//31 10//31 6//31
f 6//31 46//31 38//31
f 62//32 64//32 63//32
f 64//33 2//33 1//33
f 63//34 1//34 3//34
f 3//34 5//34 7//34
f 7//34 9//34 11//34
f 11//34 13//34 15//34
f 15//34 17//34 19//34
f 19//34 21//34 15//34
f 23//34 25//34 27//34
f 27//34 29//34 31//34
f 31//34 33//34 35//34
f 35//34 37//34 39//34
f 39//34 41//34 43//34
f 43//34 45//34 39//34
f 47//34 49//34 51//34
f 51//34 53//34 47//34
f 55//34 57//34 63//34
f 59//34 61//34 63//34
f 63//34 3//34 7//34
f 7//34 11//34 63//34
f 15//34 21//34 23//34
f 23//34 27//34 31//34
f 31//34 35//34 39//34
f 39//34 45//34 47//34
f 47//34 53//34 55//34
f 57//34 59//34 63//34
f 63//34 11//34 15//34
f 15//34 23//34 63//34
f 31//34 39//34 47//34
f 47//34 55//34 31//34
f 63//34 23//34 31//34
