# Blender v2.79 (sub 0) OBJ File: 'robot_head.blend'
# www.blender.org
mtllib robot_head.mtl
o Head_Cube.001
v -0.400000 0.199311 0.218498
v -0.234792 0.199311 0.339558
v -0.225800 0.299311 0.439558
v -0.400000 0.414121 0.439558
v -0.500000 0.299311 0.339558
v -0.500000 0.806491 0.339558
v -0.400000 0.940601 0.439558
v -0.400000 1.040601 0.339558
v -0.500000 0.940601 0.190426
v -0.500000 0.299311 -0.190426
v -0.500000 0.433420 -0.339558
v -0.400000 0.299311 -0.439558
v -0.400000 0.199311 -0.339558
v -0.400000 1.040601 -0.218498
v -0.234792 1.040601 -0.339558
v -0.225800 0.940601 -0.439558
v -0.400000 0.825790 -0.439558
v -0.500000 0.940601 -0.339558
v 0.500000 0.299311 0.190426
v 0.500000 0.433420 0.339558
v 0.400000 0.299311 0.439558
v 0.400000 0.199311 0.339558
v 0.400000 1.040601 0.218498
v 0.234792 1.040601 0.339558
v 0.225800 0.940601 0.439558
v 0.400000 0.825790 0.439558
v 0.500000 0.940601 0.339558
v 0.234792 0.199311 -0.339558
v 0.225800 0.299311 -0.439558
v 0.400000 0.414121 -0.439558
v 0.500000 0.299311 -0.339558
v 0.400000 0.199311 -0.218498
v 0.400000 1.040601 -0.339558
v 0.500000 0.940601 -0.190426
v 0.500000 0.806491 -0.339558
v 0.400000 0.940601 -0.439558
vt 0.406248 0.828195
vt 0.495119 0.902961
vt 0.406248 0.902961
vt 0.164130 0.811890
vt 0.253001 0.811890
vt 0.253001 0.886657
vt 0.302582 0.811890
vt 0.377846 0.811890
vt 0.377846 0.883916
vt 0.430986 0.811891
vt 0.519857 0.811891
vt 0.519857 0.886657
vt 0.014547 0.830936
vt 0.089811 0.902961
vt 0.014548 0.902961
vt 0.281404 0.830936
vt 0.356667 0.902961
vt 0.281404 0.902961
vt 0.139392 0.828195
vt 0.228263 0.902961
vt 0.139392 0.902961
vt 0.800325 0.908333
vt 0.890473 0.829082
vt 0.890473 0.908333
vt 0.867310 0.174444
vt 0.867310 0.253694
vt 0.777162 0.253694
vt 0.776864 0.891141
vt 0.776864 0.811890
vt 0.867011 0.811890
vt 0.035726 0.811890
vt 0.110990 0.811890
vt 0.110990 0.883916
vt 0.761464 0.248586
vt 0.747510 0.260853
vt 0.739499 0.253694
vt 0.007759 0.804783
vt 0.025907 0.822150
vt 0.101171 0.894176
vt 0.110990 0.917162
vt 0.784627 0.903224
vt 0.770673 0.915492
vt 0.762662 0.908333
vt 0.368027 0.894176
vt 0.377846 0.917162
vt 0.882710 0.816999
vt 0.896664 0.804731
vt 0.904674 0.811890
vt 0.842571 0.143051
vt 0.874469 0.149241
vt 0.843848 0.157252
vt 0.904674 0.908333
vt 0.890473 0.922534
vt 0.753700 0.236502
vt 0.739499 0.178430
vt 0.753700 0.157252
vt 0.534059 0.830936
vt 0.534058 0.902961
vt 0.762662 0.833069
vt 0.801602 0.922534
vt 0.881511 0.232516
vt 0.904674 0.887154
vt 0.778439 0.267895
vt 0.865734 0.797689
vt 0.767785 0.243028
vt 0.000346 0.811890
vt 0.118097 0.910374
vt 0.790949 0.897667
vt 0.384953 0.910374
vt 0.876388 0.822556
vt 0.857933 0.163778
vt 0.867310 0.143051
vt 0.753700 0.143051
vt 0.881511 0.157252
vt 0.867310 0.267895
vt 0.776864 0.797689
vn 0.0000 0.0000 1.0000
vn 0.0000 0.0000 -1.0000
vn 1.0000 0.0000 0.0000
vn -1.0000 0.0000 0.0000
vn 0.0000 1.0000 0.0000
vn 0.0000 -1.0000 0.0000
vn -0.3040 -0.4613 0.8336
vn -0.8671 0.3704 0.3331
vn -0.8671 -0.3704 -0.3331
vn -0.3040 0.4613 -0.8336
vn 0.8671 -0.3704 0.3331
vn 0.3040 0.4613 0.8336
vn 0.2536 -0.6725 -0.6953
vn 0.8559 0.3656 -0.3656
vn -0.7071 -0.7071 0.0000
vn -0.7071 0.0000 0.7071
vn -0.7071 0.7071 0.0000
vn -0.7071 0.0000 -0.7071
vn 0.0000 -0.7071 -0.7071
vn 0.0000 0.7071 -0.7071
vn 0.7071 0.0000 -0.7071
vn 0.7071 -0.7071 0.0000
vn 0.7071 0.7071 0.0000
vn 0.7071 0.0000 0.7071
vn 0.0000 -0.7071 0.7071
vn 0.0000 0.7071 0.7071
vn -0.3179 -0.8431 0.4338
vn -0.2536 -0.6725 0.6953
vn -0.8559 0.3656 0.3656
vn -0.8559 -0.3656 -0.3656
vn -0.3179 0.8431 -0.4338
vn -0.2536 0.6725 -0.6953
vn 0.8559 -0.3656 0.3656
vn 0.3179 0.8431 0.4338
vn 0.2536 0.6725 0.6953
vn 0.3179 -0.8431 -0.4338
vn 0.3040 -0.4613 -0.8336
vn 0.8671 0.3704 -0.3331
usemtl SpaceMat
s off
f 26/1/1 3/2/1 21/3/1
f 16/4/2 36/5/2 30/6/2
f 34/7/3 27/8/3 20/9/3
f 25/10/1 7/11/1 4/12/1
f 6/13/4 10/14/4 5/15/4
f 35/16/3 19/17/3 31/18/3
f 17/19/2 29/20/2 12/21/2
f 15/22/5 23/23/5 33/24/5
f 32/25/6 22/26/6 2/27/6
f 14/28/5 8/29/5 24/30/5
f 9/31/4 18/32/4 11/33/4
f 3/34/7 4/35/7 5/36/7
f 6/13/8 8/37/8 9/38/8
f 11/39/9 13/40/9 10/14/9
f 16/41/10 17/42/10 18/43/10
f 20/44/11 22/45/11 19/17/11
f 25/46/12 26/47/12 27/48/12
f 29/49/13 31/50/13 28/51/13
f 33/24/14 35/52/14 36/53/14
f 1/54/15 10/55/15 13/56/15
f 4/12/16 6/57/16 5/58/16
f 14/28/17 9/59/17 8/29/17
f 17/19/18 11/33/18 18/32/18
f 13/56/19 29/49/19 28/51/19
f 33/24/20 16/60/20 15/22/20
f 35/16/21 30/6/21 36/5/21
f 32/25/22 19/61/22 22/26/22
f 23/23/23 34/62/23 33/24/23
f 26/1/24 20/9/24 27/8/24
f 22/26/25 3/63/25 2/27/25
f 8/29/26 25/64/26 24/30/26
f 10/14/4 9/31/4 11/33/4
f 29/20/2 16/4/2 30/6/2
f 19/17/3 34/7/3 20/9/3
f 3/2/1 25/10/1 4/12/1
f 28/51/6 2/27/6 1/54/6
f 15/22/5 24/30/5 23/23/5
f 28/51/6 1/54/6 13/56/6
f 5/36/27 1/54/27 2/65/27
f 2/65/28 3/34/28 5/36/28
f 6/13/29 7/66/29 8/37/29
f 11/39/30 12/67/30 13/40/30
f 18/43/31 14/28/31 15/68/31
f 15/68/32 16/41/32 18/43/32
f 20/44/33 21/69/33 22/45/33
f 27/48/34 23/23/34 24/70/34
f 24/70/35 25/46/35 27/48/35
f 32/71/36 28/51/36 31/50/36
f 29/49/37 30/72/37 31/50/37
f 33/24/38 34/62/38 35/52/38
f 1/54/15 5/36/15 10/55/15
f 4/12/16 7/11/16 6/57/16
f 14/28/17 18/43/17 9/59/17
f 17/19/18 12/21/18 11/33/18
f 13/56/19 12/73/19 29/49/19
f 33/24/20 36/53/20 16/60/20
f 35/16/21 31/18/21 30/6/21
f 32/25/22 31/74/22 19/61/22
f 23/23/23 27/48/23 34/62/23
f 26/1/24 21/3/24 20/9/24
f 22/26/25 21/75/25 3/63/25
f 8/29/26 7/76/26 25/64/26
f 10/14/4 6/13/4 9/31/4
f 29/20/2 17/19/2 16/4/2
f 19/17/3 35/16/3 34/7/3
f 3/2/1 26/1/1 25/10/1
f 28/51/6 32/25/6 2/27/6
f 15/22/5 14/28/5 24/30/5
