# Blender v2.79 (sub 0) OBJ File: 'robot_body.blend'
# www.blender.org
mtllib robot_body.mtl
o Cube.002
v -0.400000 1.750000 0.451320
v -0.319575 1.750000 0.700000
v -0.338197 1.850000 0.800000
v -0.400000 2.173607 0.800000
v -0.500000 1.850000 0.700000
v -0.500000 3.464922 0.700000
v -0.400000 3.650000 0.800000
v -0.400000 3.750000 0.700000
v -0.500000 3.650000 0.591938
v -0.500000 1.850000 -0.591938
v -0.500000 2.035078 -0.700000
v -0.400000 1.850000 -0.800000
v -0.400000 1.750000 -0.700000
v -0.400000 3.750000 -0.451320
v -0.319575 3.750000 -0.700000
v -0.338197 3.650000 -0.800000
v -0.400000 3.326393 -0.800000
v -0.500000 3.650000 -0.700000
v 0.500000 1.850000 0.591938
v 0.500000 2.035078 0.700000
v 0.400000 1.850000 0.800000
v 0.400000 1.750000 0.700000
v 0.400000 3.750000 0.451320
v 0.319575 3.750000 0.700000
v 0.338197 3.650000 0.800000
v 0.400000 3.326393 0.800000
v 0.500000 3.650000 0.700000
v 0.319575 1.750000 -0.700000
v 0.338197 1.850000 -0.800000
v 0.400000 2.173607 -0.800000
v 0.500000 1.850000 -0.700000
v 0.400000 1.750000 -0.451320
v 0.400000 3.750000 -0.700000
v 0.500000 3.650000 -0.591938
v 0.500000 3.464922 -0.700000
v 0.400000 3.650000 -0.800000
vt -0.404906 -0.144504
vt -0.666987 -0.668667
vt -0.404906 -0.668667
vt 0.496227 -0.029615
vt 0.234146 -0.029615
vt 0.234146 -0.553777
vt 0.124775 -0.029615
vt -0.333901 -0.029615
vt -0.333901 -0.602959
vt -0.426848 -0.029615
vt -0.688929 -0.029615
vt -0.688929 -0.553777
vt 1.086215 -0.095323
vt 0.627540 -0.668666
vt 1.086215 -0.668666
vt 0.163140 -0.095323
vt -0.295535 -0.668667
vt 0.163140 -0.668667
vt 0.518169 -0.144504
vt 0.256088 -0.668667
vt 0.518169 -0.668667
vt 1.144123 1.580161
vt 0.735371 1.324691
vt 1.144123 1.324691
vt 1.567705 -0.384643
vt 1.158953 -0.384643
vt 1.158953 -0.640113
vt 1.055835 1.608714
vt 0.647083 1.608714
vt 0.647083 1.353244
vt 1.047850 -0.029615
vt 0.589174 -0.029615
vt 0.589174 -0.602958
vt 1.149268 -0.688033
vt 1.139406 -0.694197
vt 1.158953 -0.704169
vt 1.121718 -0.029615
vt 1.075573 -0.051793
vt 0.570990 -0.682521
vt 0.589175 -0.704169
vt 1.153808 1.628081
vt 1.163670 1.634244
vt 1.144123 1.644217
vt -0.352085 -0.682521
vt -0.333900 -0.704170
vt 0.637398 1.305324
vt 0.627536 1.299160
vt 0.647083 1.289188
vt 1.691496 -0.406585
vt 1.665966 -0.365097
vt 1.655993 -0.413197
vt 1.105758 1.289188
vt 1.179626 1.324691
vt 1.247241 -0.668667
vt 1.617628 -0.704170
vt 1.655993 -0.668667
vt -0.724432 -0.095323
vt -0.724432 -0.668667
vt 0.685448 1.644217
vt 1.691496 -0.668667
vt 1.179626 1.586772
vt 1.197318 -0.349141
vt 1.123450 -0.384643
vt 1.123450 -0.646724
vt 0.611580 1.608714
vt 0.611580 1.346633
vt 1.177769 -0.670220
vt 1.107863 -0.011430
vt 0.616898 -0.625137
vt 1.125307 1.610267
vt -0.306177 -0.625137
vt 0.665899 1.323137
vt 1.586521 -0.414750
vt 1.691496 -0.384643
vt 1.144123 1.289188
vt 1.655993 -0.349141
vn 0.0000 0.0000 1.0000
vn 0.0000 0.0000 -1.0000
vn 1.0000 0.0000 0.0000
vn -1.0000 0.0000 0.0000
vn 0.0000 1.0000 0.0000
vn 0.0000 -1.0000 0.0000
vn -0.5231 -0.0999 0.8464
vn -0.8738 0.2452 0.4200
vn -0.8270 -0.3975 -0.3975
vn -0.5231 0.0999 -0.8464
vn 0.8270 -0.3975 0.3975
vn 0.5231 0.0999 0.8464
vn 0.3814 -0.6882 -0.6172
vn 0.8270 0.3975 -0.3975
vn -0.7071 -0.7071 0.0000
vn -0.7071 0.0000 0.7071
vn -0.7071 0.7071 0.0000
vn -0.7071 0.0000 -0.7071
vn 0.0000 -0.7071 -0.7071
vn 0.0000 0.7071 -0.7071
vn 0.7071 0.0000 -0.7071
vn 0.7071 -0.7071 0.0000
vn 0.7071 0.7071 0.0000
vn 0.7071 0.0000 0.7071
vn 0.0000 -0.7071 0.7071
vn 0.0000 0.7071 0.7071
vn -0.4789 -0.8641 0.1549
vn -0.3814 -0.6882 0.6172
vn -0.8270 0.3975 0.3975
vn -0.8738 -0.2452 -0.4200
vn -0.4789 0.8641 -0.1549
vn -0.3814 0.6882 -0.6172
vn 0.8738 -0.2452 0.4200
vn 0.4789 0.8641 0.1549
vn 0.3814 0.6882 0.6172
vn 0.4789 -0.8641 -0.1549
vn 0.5231 -0.0999 -0.8464
vn 0.8738 0.2452 -0.4200
usemtl SpaceMat
s off
f 26/1/1 3/2/1 21/3/1
f 16/4/2 36/5/2 30/6/2
f 34/7/3 27/8/3 20/9/3
f 25/10/1 7/11/1 4/12/1
f 6/13/4 10/14/4 5/15/4
f 35/16/3 19/17/3 31/18/3
f 17/19/2 29/20/2 12/21/2
f 15/22/5 23/23/5 33/24/5
f 32/25/6 22/26/6 2/27/6
f 14/28/5 8/29/5 24/30/5
f 9/31/4 18/32/4 11/33/4
f 3/34/7 4/35/7 5/36/7
f 7/37/8 9/38/8 6/13/8
f 10/14/9 12/39/9 13/40/9
f 16/41/10 17/42/10 18/43/10
f 19/17/11 21/44/11 22/45/11
f 25/46/12 26/47/12 27/48/12
f 29/49/13 31/50/13 28/51/13
f 34/52/14 36/53/14 33/24/14
f 1/54/15 10/55/15 13/56/15
f 4/12/16 6/57/16 5/58/16
f 14/28/17 9/59/17 8/29/17
f 17/19/18 11/33/18 18/32/18
f 28/51/19 12/60/19 29/49/19
f 15/22/20 36/53/20 16/61/20
f 35/16/21 30/6/21 36/5/21
f 32/25/22 19/62/22 22/26/22
f 23/23/23 34/52/23 33/24/23
f 26/1/24 20/9/24 27/8/24
f 2/27/25 21/63/25 3/64/25
f 24/30/26 7/65/26 25/66/26
f 6/13/4 11/33/4 10/14/4
f 17/19/2 30/6/2 29/20/2
f 35/16/3 20/9/3 19/17/3
f 26/1/1 4/12/1 3/2/1
f 1/54/6 32/25/6 2/27/6
f 23/23/5 14/28/5 24/30/5
f 28/51/6 1/54/6 13/56/6
f 5/36/27 1/54/27 2/67/27
f 2/67/28 3/34/28 5/36/28
f 7/37/29 8/68/29 9/38/29
f 10/14/30 11/69/30 12/39/30
f 18/43/31 14/28/31 15/70/31
f 15/70/32 16/41/32 18/43/32
f 19/17/33 20/71/33 21/44/33
f 27/48/34 23/23/34 24/72/34
f 24/72/35 25/46/35 27/48/35
f 32/73/36 28/51/36 31/50/36
f 29/49/37 30/74/37 31/50/37
f 34/52/38 35/75/38 36/53/38
f 1/54/15 5/36/15 10/55/15
f 4/12/16 7/11/16 6/57/16
f 14/28/17 18/43/17 9/59/17
f 17/19/18 12/21/18 11/33/18
f 28/51/19 13/56/19 12/60/19
f 15/22/20 33/24/20 36/53/20
f 35/16/21 31/18/21 30/6/21
f 32/25/22 31/76/22 19/62/22
f 23/23/23 27/48/23 34/52/23
f 26/1/24 21/3/24 20/9/24
f 2/27/25 22/26/25 21/63/25
f 24/30/26 8/29/26 7/65/26
f 6/13/4 9/31/4 11/33/4
f 17/19/2 16/4/2 30/6/2
f 35/16/3 34/7/3 20/9/3
f 26/1/1 25/10/1 4/12/1
f 1/54/6 28/51/6 32/25/6
f 23/23/5 15/22/5 14/28/5
