# Blender v2.79 (sub 0) OBJ File: 'robot_arm.blend'
# www.blender.org
mtllib robot_arm.mtl
o Arm_Cube.000
v -0.235526 -1.400000 0.070378
v -0.065490 -1.400000 0.188000
v -0.191522 -1.300000 0.288000
v -0.235526 -0.845495 0.288000
v -0.335526 -1.300000 0.188000
v -0.335526 -0.240610 0.188000
v -0.235526 0.300000 0.288000
v -0.235526 0.400000 0.188000
v -0.335526 0.300000 0.151005
v -0.335526 -1.300000 -0.151005
v -0.335526 -0.759390 -0.188000
v -0.235526 -1.300000 -0.288000
v -0.235526 -1.400000 -0.188000
v -0.235526 0.400000 -0.070378
v -0.065490 0.400000 -0.188000
v -0.191522 0.300000 -0.288000
v -0.235526 -0.154505 -0.288000
v -0.335526 0.300000 -0.188000
v 0.335526 -1.300000 0.151005
v 0.335526 -0.759390 0.188000
v 0.235526 -1.300000 0.288000
v 0.235526 -1.400000 0.188000
v 0.235526 0.400000 0.070378
v 0.065490 0.400000 0.188000
v 0.191522 0.300000 0.288000
v 0.235526 -0.154505 0.288000
v 0.335526 0.300000 0.188000
v 0.065490 -1.400000 -0.188000
v 0.191522 -1.300000 -0.288000
v 0.235526 -0.845495 -0.288000
v 0.335526 -1.300000 -0.188000
v 0.235526 -1.400000 -0.070378
v 0.235526 0.400000 -0.188000
v 0.335526 0.300000 -0.151005
v 0.335526 -0.240610 -0.188000
v 0.235526 0.300000 -0.288000
vt 0.109110 0.461937
vt 0.027774 0.299263
vt 0.109110 0.299263
vt 0.310338 0.526482
vt 0.229002 0.526482
vt 0.229002 0.363808
vt 0.190501 0.526482
vt 0.142358 0.526482
vt 0.142358 0.376036
vt 0.100729 0.526482
vt 0.019393 0.526482
vt 0.019393 0.363808
vt 0.405363 0.449709
vt 0.357221 0.299263
vt 0.405363 0.299263
vt 0.195754 0.449709
vt 0.147612 0.299263
vt 0.195754 0.299263
vt 0.318719 0.461937
vt 0.237383 0.299263
vt 0.318720 0.299263
vt 0.891600 0.352660
vt 0.948932 0.315967
vt 0.948932 0.352660
vt 0.948932 0.700784
vt 0.948932 0.737476
vt 0.891600 0.737476
vt 0.859214 0.335956
vt 0.859214 0.299263
vt 0.916547 0.299263
vt 0.400110 0.526482
vt 0.351967 0.526482
vt 0.351967 0.376036
vt 0.879195 0.726701
vt 0.855960 0.741571
vt 0.859214 0.720773
vt 0.419564 0.526482
vt 0.413635 0.522154
vt 0.341888 0.297944
vt 0.351967 0.285062
vt 0.879195 0.341884
vt 0.855960 0.356754
vt 0.132279 0.297944
vt 0.142358 0.285062
vt 0.928952 0.310039
vt 0.952186 0.295169
vt 0.940551 0.669879
vt 0.958565 0.675903
vt 0.936527 0.690008
vt 0.967978 0.347406
vt 0.948932 0.366861
vt 0.840168 0.689334
vt 0.859214 0.684080
vt 0.000346 0.449709
vt 0.000346 0.299263
vt 0.840168 0.304517
vt 0.916547 0.684080
vt 0.859214 0.669879
vt 0.867595 0.366861
vt 0.967978 0.732223
vt 0.948932 0.751678
vt 0.867595 0.751678
vt 0.859214 0.285062
vt 0.940551 0.285062
vt 0.840168 0.737476
vt 0.851135 0.744659
vt 0.418245 0.536561
vt 0.365492 0.371708
vt 0.840168 0.352660
vt 0.851134 0.359842
vt 0.155883 0.371708
vt 0.967978 0.299263
vt 0.957012 0.292081
vt 0.948932 0.669879
vt 0.967978 0.352660
vt 0.967978 0.684080
vn 0.0000 0.0000 1.0000
vn 0.0000 0.0000 -1.0000
vn 1.0000 0.0000 0.0000
vn -1.0000 0.0000 0.0000
vn 0.0000 1.0000 0.0000
vn 0.0000 -1.0000 0.0000
vn -0.3099 -0.8386 0.4480
vn -0.8070 0.0403 0.5891
vn -0.6958 -0.5079 -0.5079
vn -0.3099 0.8386 -0.4480
vn 0.6958 -0.5079 0.5079
vn 0.3099 0.8386 0.4480
vn 0.3111 -0.8381 -0.4480
vn 0.6958 0.5079 -0.5079
vn -0.7071 -0.7071 0.0000
vn -0.7071 0.0000 0.7071
vn -0.7071 0.7071 0.0000
vn -0.7071 -0.0000 -0.7071
vn 0.0000 -0.7071 -0.7071
vn 0.0000 0.7071 -0.7071
vn 0.7071 0.0000 -0.7071
vn 0.7071 -0.7071 0.0000
vn 0.7071 0.7071 0.0000
vn 0.7071 -0.0000 0.7071
vn 0.0000 -0.7071 0.7071
vn 0.0000 0.7071 0.7071
vn -0.3111 -0.8381 0.4480
vn -0.5695 -0.0551 0.8201
vn -0.6958 0.5079 0.5079
vn -0.8070 -0.0403 -0.5891
vn -0.3111 0.8381 -0.4480
vn -0.5695 0.0551 -0.8201
vn 0.8070 -0.0403 0.5891
vn 0.3111 0.8381 0.4480
vn 0.5695 0.0551 0.8201
vn 0.3099 -0.8386 -0.4480
vn 0.5695 -0.0551 -0.8201
vn 0.8070 0.0403 -0.5891
usemtl SpaceMat
s off
f 26/1/1 3/2/1 21/3/1
f 16/4/2 36/5/2 30/6/2
f 34/7/3 27/8/3 20/9/3
f 25/10/1 7/11/1 4/12/1
f 6/13/4 10/14/4 5/15/4
f 35/16/3 19/17/3 31/18/3
f 17/19/2 29/20/2 12/21/2
f 15/22/5 23/23/5 33/24/5
f 32/25/6 22/26/6 2/27/6
f 14/28/5 8/29/5 24/30/5
f 9/31/4 18/32/4 11/33/4
f 2/34/7 3/35/7 1/36/7
f 7/37/8 9/38/8 6/13/8
f 10/14/9 12/39/9 13/40/9
f 15/41/10 16/42/10 14/28/10
f 19/17/11 21/43/11 22/44/11
f 24/45/12 25/46/12 23/23/12
f 29/47/13 31/48/13 32/49/13
f 34/50/14 36/51/14 33/24/14
f 1/36/15 10/52/15 13/53/15
f 4/12/16 6/54/16 5/55/16
f 14/28/17 9/56/17 8/29/17
f 17/19/18 11/33/18 18/32/18
f 28/57/19 12/58/19 29/47/19
f 15/22/20 36/51/20 16/59/20
f 35/16/21 30/6/21 36/5/21
f 32/25/22 19/60/22 22/26/22
f 23/23/23 34/50/23 33/24/23
f 26/1/24 20/9/24 27/8/24
f 2/27/25 21/61/25 3/62/25
f 24/30/26 7/63/26 25/64/26
f 6/13/4 11/33/4 10/14/4
f 17/19/2 30/6/2 29/20/2
f 35/16/3 20/9/3 19/17/3
f 26/1/1 4/12/1 3/2/1
f 28/57/6 2/27/6 1/36/6
f 15/22/5 24/30/5 23/23/5
f 28/57/6 1/36/6 13/53/6
f 5/65/27 1/36/27 3/35/27
f 3/35/28 4/66/28 5/65/28
f 7/37/29 8/67/29 9/38/29
f 10/14/30 11/68/30 12/39/30
f 18/69/31 14/28/31 16/42/31
f 16/42/32 17/70/32 18/69/32
f 19/17/33 20/71/33 21/43/33
f 27/72/34 23/23/34 25/46/34
f 25/46/35 26/73/35 27/72/35
f 32/49/36 28/57/36 29/47/36
f 29/47/37 30/74/37 31/48/37
f 34/50/38 35/75/38 36/51/38
f 1/36/15 5/65/15 10/52/15
f 4/12/16 7/11/16 6/54/16
f 14/28/17 18/69/17 9/56/17
f 17/19/18 12/21/18 11/33/18
f 28/57/19 13/53/19 12/58/19
f 15/22/20 33/24/20 36/51/20
f 35/16/21 31/18/21 30/6/21
f 32/25/22 31/76/22 19/60/22
f 23/23/23 27/72/23 34/50/23
f 26/1/24 21/3/24 20/9/24
f 2/27/25 22/26/25 21/61/25
f 24/30/26 8/29/26 7/63/26
f 6/13/4 9/31/4 11/33/4
f 17/19/2 16/4/2 30/6/2
f 35/16/3 34/7/3 20/9/3
f 26/1/1 25/10/1 4/12/1
f 28/57/6 32/25/6 2/27/6
f 15/22/5 14/28/5 24/30/5
