# Blender v2.79 (sub 0) OBJ File: 'turret.blend'
# www.blender.org
mtllib turret.mtl
o Cube
v 0.000000 0.000000 -1.000000
v 0.000000 1.840289 -1.878408
v 0.587785 0.000000 -0.809017
v 0.587785 1.840289 -1.687425
v 0.951057 0.000000 -0.309017
v 0.951057 1.840289 -1.187425
v 0.951056 0.000000 0.309017
v 0.951056 1.840289 -0.569391
v 0.587785 0.000000 0.809017
v 0.587785 1.840289 -0.069391
v -0.000000 0.000000 1.000000
v -0.000000 1.840289 0.121592
v -0.587785 0.000000 0.809017
v -0.587785 1.840289 -0.069391
v -0.951056 0.000000 0.309017
v -0.951056 1.840289 -0.569391
v -0.951056 0.000000 -0.309017
v -0.951056 1.840289 -1.187426
v -0.587785 0.000000 -0.809017
v -0.587785 1.840289 -1.687426
v 0.637963 3.517348 -1.686579
v 0.000000 3.604467 -1.874669
v 1.032245 3.289265 -1.194153
v 1.032245 3.007340 -0.585480
v 0.637963 2.779258 -0.093054
v -0.000000 2.692138 0.095036
v -0.637963 2.779258 -0.093054
v -1.032245 3.007340 -0.585480
v -1.032245 3.289266 -1.194153
v -0.637962 3.517348 -1.686579
v 0.595355 4.782557 -0.473002
v -0.014609 4.945531 -0.585778
v 0.972333 4.355885 -0.177752
v 0.972333 3.828489 0.187198
v 0.595355 3.401817 0.482449
v -0.014609 3.238843 0.595224
v -0.624573 3.401817 0.482449
v -1.001551 3.828489 0.187198
v -1.001551 4.355885 -0.177752
v -0.624572 4.782557 -0.473002
v 0.352690 4.593011 2.373414
v 0.000000 4.705251 2.373414
v 0.567604 4.303290 2.373414
v 0.567604 3.948424 2.373414
v 0.352690 3.658703 2.373414
v 0.000000 3.546464 2.373414
v -0.352690 3.658703 2.373414
v -0.567604 3.948424 2.373414
v -0.567604 4.303290 2.373414
v -0.352690 4.593011 2.373414
v 0.513299 4.817823 2.373414
v 0.000000 4.981174 2.373414
v 0.830535 4.390164 2.373414
v 0.830535 3.861550 2.373414
v 0.513299 3.433891 2.373414
v 0.000000 3.270540 2.373414
v -0.513299 3.433891 2.373414
v -0.830535 3.861550 2.373414
v -0.830535 4.390164 2.373414
v -0.513299 4.817823 2.373414
v 0.352690 4.475095 0.058165
v 0.000000 4.580931 0.020795
v 0.567604 4.201904 0.154627
v 0.567604 3.867285 0.272779
v 0.352690 3.594093 0.369241
v 0.000000 3.488258 0.406611
v -0.352690 3.594094 0.369241
v -0.567604 3.867285 0.272779
v -0.567604 4.201904 0.154627
v -0.352690 4.475095 0.058165
vt 0.595564 -0.418579
vt 0.405264 -1.218588
vt 0.707821 -1.229640
vt 1.325377 -0.388695
vt 1.305448 -1.327409
vt 1.604385 -1.350702
vt 1.045284 -0.414538
vt 1.008392 -1.273558
vt 0.102794 -1.229806
vt 0.006027 -0.420434
vt -0.197462 -1.273763
vt 1.629407 -0.328754
vt 1.909244 -1.306073
vt 0.213837 -0.419203
vt -0.234947 -0.416156
vt -0.494098 -1.327533
vt -0.406075 0.056434
vt -0.514142 -0.390421
vt -0.792604 -1.350702
vt 1.484076 0.470655
vt 1.320405 1.302322
vt 1.179025 0.461657
vt 0.429020 1.693507
vt 0.450292 1.491954
vt 0.513206 1.580017
vt -0.131723 0.033969
vt 0.083705 0.426796
vt -0.117662 0.444477
vt -0.683495 0.467443
vt -0.516533 1.302095
vt -0.760911 1.275411
vt 1.535040 0.102766
vt 1.217416 0.060521
vt 0.940549 0.037750
vt 0.723360 0.428220
vt 0.727213 0.028096
vt -0.721927 0.099682
vt -0.377415 0.458913
vt 0.803696 -0.419237
vt 0.404667 -0.416863
vt 0.251566 0.022420
vt 0.080213 0.025439
vt -0.817184 -0.330233
vt -1.097001 -1.306017
vt 0.250527 0.417125
vt 0.555409 0.023737
vt 0.404111 0.412373
vt 0.403441 0.022743
vt 0.166946 1.409342
vt -0.063768 1.373797
vt 0.557545 0.417816
vt 0.922393 0.446594
vt 0.401386 1.426937
vt 0.635629 1.408248
vt -0.289898 1.334395
vt -0.530584 1.427966
vt -0.681642 2.301551
vt -0.671844 1.431556
vt 0.866343 1.372111
vt 1.338227 1.837920
vt 1.200072 1.427966
vt 1.338227 1.471933
vt 1.093070 1.333053
vt 0.513206 1.946005
vt 0.651362 2.098057
vt 0.450293 2.034068
vt 0.429020 1.832515
vt 0.326025 1.866546
vt 0.873705 1.832515
vt 0.852432 2.034068
vt 0.789518 1.946005
vt 0.651362 1.989972
vt 0.789518 1.580017
vt 0.651362 1.427966
vt 0.852432 1.491954
vt 0.873705 1.693507
vt 0.976700 1.659477
vt 0.976700 1.866546
vt 1.061915 1.837920
vt 1.061915 1.471932
vt -0.952026 1.440117
vt -1.095722 2.212431
vt -1.097001 1.441658
vt -0.810771 1.436337
vt -0.951338 2.225600
vt -0.099619 1.440708
vt 0.016211 2.273087
vt -0.117648 2.310572
vt -0.385601 1.427966
vt -0.255730 2.340584
vt -0.400359 2.350703
vt -0.814234 2.259804
vt 0.180144 1.458225
vt 0.299070 2.234739
vt 0.154339 2.243284
vt -0.240692 1.432603
vt 0.039083 1.449929
vt 1.422414 1.724431
vt 0.651362 1.536051
vt 0.977729 1.724430
vt 0.977729 1.585422
vt 1.422414 1.585423
vt -0.544591 2.335963
vt 1.565098 1.278376
vt 0.326025 1.659477
vt 1.200071 1.881887
vt 0.324996 1.464401
vn -0.2814 -0.4134 -0.8660
vn -0.7789 0.2701 0.5659
vn -1.0000 0.0000 0.0000
vn 0.7789 -0.2701 -0.5659
vn -0.2814 0.4134 0.8660
vn 0.2814 -0.4134 -0.8660
vn 1.0000 0.0000 0.0000
vn 0.8087 -0.0284 0.5875
vn 0.7789 0.2701 0.5659
vn -0.2635 -0.9641 0.0319
vn 0.0000 0.0000 1.0000
vn 0.9985 0.0309 0.0446
vn 0.3032 -0.9528 0.0145
vn -0.2816 0.0091 0.9595
vn -0.9998 0.0200 0.0092
vn 0.3016 -0.6392 0.7074
vn -0.9981 -0.0560 -0.0260
vn 0.7972 -0.3795 0.4695
vn 0.3090 -0.0088 -0.9510
vn 0.8081 -0.0480 -0.5871
vn -0.7902 -0.0465 0.6111
vn 0.2814 0.4134 0.8660
vn -0.2958 -0.6450 0.7046
vn 0.9976 -0.0694 0.0000
vn 0.8059 0.4315 -0.4054
vn -0.2939 0.6607 -0.6908
vn 0.8026 0.5954 0.0366
vn 0.3038 0.6648 -0.6824
vn -0.7920 0.4270 -0.4364
vn -0.7973 -0.3976 0.4542
vn -0.2599 0.9656 -0.0103
vn -0.2830 0.0020 -0.9591
vn -0.7421 0.6700 0.0207
vn 0.8023 -0.5952 0.0449
vn -0.8029 -0.5956 0.0272
vn -0.9968 0.0458 0.0662
vn 0.3033 0.9529 -0.0031
vn 0.0000 0.3329 0.9429
vn -0.7711 -0.6329 0.0699
vn 0.3089 0.0296 0.9506
vn -0.7789 -0.2701 -0.5659
vn 0.9979 -0.0000 0.0647
vn -0.7752 -0.0229 -0.6313
vn -0.3031 0.9525 -0.0282
vn -0.8030 0.5957 -0.0192
vn 0.2920 -0.9551 0.0505
vn 0.2903 0.9564 -0.0308
vn 0.7909 -0.6112 0.0311
vn 0.7898 0.6129 -0.0237
vn -0.3029 -0.9518 0.0485
vn 0.7902 -0.0465 0.6111
vn -0.3032 -0.9527 0.0195
vn 0.9991 0.0389 0.0180
vn 0.2628 -0.9644 0.0278
vn -0.3089 0.0296 0.9506
vn -0.9996 0.0158 0.0229
vn 0.2967 -0.6372 0.7113
vn -0.9976 -0.0694 0.0000
vn 0.8000 -0.3791 0.4650
vn 0.2830 0.0020 -0.9591
vn 0.7752 -0.0229 -0.6313
vn -0.8087 -0.0284 0.5875
vn -0.3024 -0.6478 0.6992
vn 0.9981 -0.0560 -0.0260
vn 0.7897 0.4383 -0.4293
vn -0.3035 0.6612 -0.6860
vn 0.7448 0.6672 0.0132
vn 0.2934 0.6641 -0.6877
vn -0.8046 0.4216 -0.4181
vn -0.8007 -0.3972 0.4483
vn -0.3033 0.9529 0.0000
vn -0.3090 -0.0088 -0.9510
vn -0.8023 0.5952 0.0458
vn 0.7681 -0.6375 0.0595
vn -0.7909 -0.6112 0.0311
vn -0.9970 0.0000 0.0780
vn 0.2603 0.9654 -0.0129
vn -0.8018 -0.5948 0.0573
vn 0.2816 0.0091 0.9595
vn 0.9978 0.0380 0.0549
vn -0.8081 -0.0480 -0.5871
vn -0.2903 0.9564 -0.0308
vn -0.7898 0.6129 -0.0237
vn 0.3029 -0.9518 0.0485
vn 0.3031 0.9525 -0.0282
vn 0.8029 -0.5956 0.0272
vn 0.8030 0.5957 -0.0192
vn -0.2920 -0.9551 0.0505
usemtl None
s off
f 20/1/1 1/2/1 19/3/1
f 14/4/2 15/5/2 13/6/2
f 16/7/3 17/8/3 15/5/3
f 3/9/4 6/10/4 5/11/4
f 12/12/5 13/6/5 11/13/5
f 1/2/6 4/14/6 3/9/6
f 5/11/7 8/15/7 7/16/7
f 8/15/8 25/17/8 10/18/8
f 7/16/9 10/18/9 9/19/9
f 36/20/10 57/21/10 37/22/10
f 48/23/11 57/24/11 47/25/11
f 24/26/12 33/27/12 34/28/12
f 36/29/13 55/30/13 56/31/13
f 14/4/14 26/32/14 27/33/14
f 28/34/15 39/35/15 29/36/15
f 26/37/16 35/38/16 36/29/16
f 18/39/17 28/34/17 29/36/17
f 25/17/18 34/28/18 35/38/18
f 2/40/19 21/41/19 4/14/19
f 4/14/20 23/42/20 6/10/20
f 16/7/21 27/33/21 28/34/21
f 9/19/22 12/43/22 11/44/22
f 26/32/23 37/22/23 27/33/23
f 6/10/24 24/26/24 8/15/24
f 23/42/25 31/45/25 33/27/25
f 30/46/26 32/47/26 22/48/26
f 33/27/27 51/49/27 53/50/27
f 21/41/28 32/47/28 31/45/28
f 29/36/29 40/51/29 30/46/29
f 27/33/30 38/52/30 28/34/30
f 40/51/31 52/53/31 32/47/31
f 2/40/32 30/46/32 22/48/32
f 39/35/33 60/54/33 40/51/33
f 35/38/34 54/55/34 55/30/34
f 41/56/35 63/57/35 43/58/35
f 38/52/36 59/59/36 39/35/36
f 31/45/37 52/53/37 51/49/37
f 61/60/38 66/61/38 65/62/38
f 37/22/39 58/63/39 38/52/39
f 10/18/40 26/37/40 12/43/40
f 18/39/41 19/3/41 17/8/41
f 50/64/11 52/65/11 60/66/11
f 49/67/11 60/66/11 59/68/11
f 34/28/42 53/50/42 54/55/42
f 43/69/11 51/70/11 41/71/11
f 41/71/11 52/65/11 42/72/11
f 45/73/11 56/74/11 55/75/11
f 44/76/11 55/75/11 54/77/11
f 43/69/11 54/77/11 53/78/11
f 59/68/11 48/23/11 49/67/11
f 66/61/38 70/79/38 67/80/38
f 20/1/43 29/36/43 30/46/43
f 45/81/44 66/82/44 46/83/44
f 44/84/45 65/85/45 45/81/45
f 49/86/7 68/87/7 69/88/7
f 42/89/46 70/90/46 62/91/46
f 43/58/3 64/92/3 44/84/3
f 47/93/47 66/94/47 67/95/47
f 50/96/48 69/88/48 70/90/48
f 48/97/49 67/95/49 68/87/49
f 63/98/38 61/60/38 65/62/38
f 47/25/11 56/74/11 46/99/11
f 69/100/38 68/101/38 67/80/38
f 65/62/38 64/102/38 63/98/38
f 69/100/38 67/80/38 70/79/38
f 42/89/50 61/103/50 41/56/50
f 20/1/1 2/40/1 1/2/1
f 14/4/2 16/7/2 15/5/2
f 16/7/3 18/39/3 17/8/3
f 3/9/4 4/14/4 6/10/4
f 12/12/5 14/4/5 13/6/5
f 1/2/6 2/40/6 4/14/6
f 5/11/7 6/10/7 8/15/7
f 8/15/51 24/26/51 25/17/51
f 7/16/9 8/15/9 10/18/9
f 36/20/52 56/104/52 57/21/52
f 48/23/11 58/105/11 57/24/11
f 24/26/53 23/42/53 33/27/53
f 36/29/54 35/38/54 55/30/54
f 14/4/55 12/12/55 26/32/55
f 28/34/56 38/52/56 39/35/56
f 26/37/57 25/17/57 35/38/57
f 18/39/58 16/7/58 28/34/58
f 25/17/59 24/26/59 34/28/59
f 2/40/60 22/48/60 21/41/60
f 4/14/61 21/41/61 23/42/61
f 16/7/62 14/4/62 27/33/62
f 9/19/22 10/18/22 12/43/22
f 26/32/63 36/20/63 37/22/63
f 6/10/64 23/42/64 24/26/64
f 23/42/65 21/41/65 31/45/65
f 30/46/66 40/51/66 32/47/66
f 33/27/67 31/45/67 51/49/67
f 21/41/68 22/48/68 32/47/68
f 29/36/69 39/35/69 40/51/69
f 27/33/70 37/22/70 38/52/70
f 40/51/71 60/54/71 52/53/71
f 2/40/72 20/1/72 30/46/72
f 39/35/73 59/59/73 60/54/73
f 35/38/74 34/28/74 54/55/74
f 41/56/75 61/103/75 63/57/75
f 38/52/76 58/63/76 59/59/76
f 31/45/77 32/47/77 52/53/77
f 61/60/38 62/106/38 66/61/38
f 37/22/78 57/21/78 58/63/78
f 10/18/79 25/17/79 26/37/79
f 18/39/41 20/1/41 19/3/41
f 50/64/11 42/72/11 52/65/11
f 49/67/11 50/64/11 60/66/11
f 34/28/80 33/27/80 53/50/80
f 43/69/11 53/78/11 51/70/11
f 41/71/11 51/70/11 52/65/11
f 45/73/11 46/99/11 56/74/11
f 44/76/11 45/73/11 55/75/11
f 43/69/11 44/76/11 54/77/11
f 59/68/11 58/105/11 48/23/11
f 66/61/38 62/106/38 70/79/38
f 20/1/81 18/39/81 29/36/81
f 45/81/82 65/85/82 66/82/82
f 44/84/83 64/92/83 65/85/83
f 49/86/7 48/97/7 68/87/7
f 42/89/84 50/96/84 70/90/84
f 43/58/3 63/57/3 64/92/3
f 47/93/85 46/107/85 66/94/85
f 50/96/86 49/86/86 69/88/86
f 48/97/87 47/93/87 67/95/87
f 47/25/11 57/24/11 56/74/11
f 42/89/88 62/91/88 61/103/88
