# Blender v2.79 (sub 0) OBJ File: 'wheel.blend'
# www.blender.org
mtllib wheel.mtl
o Cylinder
v 0.000000 1.250000 -0.312500
v 0.000000 1.250000 0.312500
v 0.478354 1.154849 -0.312500
v 0.478354 1.154849 0.312500
v 0.883883 0.883883 -0.312500
v 0.883883 0.883883 0.312500
v 1.154849 0.478354 -0.312500
v 1.154849 0.478354 0.312500
v 1.250000 -0.000000 -0.312500
v 1.250000 -0.000000 0.312500
v 1.154849 -0.478354 -0.312500
v 1.154849 -0.478354 0.312500
v 0.883883 -0.883883 -0.312500
v 0.883883 -0.883883 0.312500
v 0.478354 -1.154849 -0.312500
v 0.478354 -1.154849 0.312500
v 0.000000 -1.250000 -0.312500
v 0.000000 -1.250000 0.312500
v -0.478354 -1.154850 -0.312500
v -0.478354 -1.154850 0.312500
v -0.883883 -0.883884 -0.312500
v -0.883883 -0.883884 0.312500
v -1.154849 -0.478354 -0.312500
v -1.154849 -0.478354 0.312500
v -1.250000 0.000000 -0.312500
v -1.250000 0.000000 0.312500
v -1.154849 0.478355 -0.312500
v -1.154849 0.478355 0.312500
v -0.883883 0.883884 -0.312500
v -0.883883 0.883884 0.312500
v -0.478354 1.154850 -0.312500
v -0.478354 1.154850 0.312500
vt 0.999900 0.400562
vt 0.999900 0.599435
vt 0.923795 0.783169
vt 0.783170 0.076205
vt 0.076205 0.216829
vt 0.599436 0.999899
vt 0.400564 0.999899
vt 0.216830 0.923794
vt 0.400564 0.000100
vt 0.599436 0.000100
vt 0.216830 0.076205
vt 0.000100 0.599435
vt 0.000100 0.400563
vt 0.923794 0.216829
vt 0.076205 0.783169
vt 0.783171 0.923793
vt 0.080115 0.125021
vt 0.000028 0.062525
vt 0.080115 0.062525
vt 0.080115 0.687489
vt 0.000028 0.624993
vt 0.080115 0.624993
vt 0.080115 0.437504
vt 0.000028 0.375007
vt 0.080115 0.375007
vt 0.080115 0.937475
vt 0.000028 0.999972
vt 0.000028 0.937475
vt 0.080115 0.187518
vt 0.000028 0.125021
vt 0.080115 0.312511
vt 0.000028 0.312511
vt 0.000028 0.250014
vt 0.080115 0.250014
vt 0.080115 0.812482
vt 0.000028 0.812482
vt 0.000028 0.749986
vt 0.080115 0.500000
vt 0.000028 0.437504
vt 0.999899 0.599436
vt 0.923794 0.783171
vt 0.783170 0.923795
vt 0.000028 0.187518
vt 0.080115 0.562496
vt 0.000028 0.500000
vt 0.599436 0.999900
vt 0.400563 0.999900
vt 0.000028 0.000028
vt 0.080115 0.874979
vt 0.000028 0.874979
vt 0.080115 0.999972
vt 0.000028 0.687489
vt 0.080115 0.749986
vt 0.000028 0.562496
vt 0.000100 0.400564
vt 0.076205 0.216830
vt 0.216829 0.076206
vt 0.216829 0.923795
vt 0.400564 0.000100
vt 0.599436 0.000100
vt 0.783170 0.076205
vt 0.076205 0.783171
vt 0.000100 0.599437
vt 0.923794 0.216830
vt 0.999899 0.400564
vt 0.080115 0.000028
vn 0.0000 -0.0000 1.0000
vn 0.9808 0.1951 -0.0000
vn -0.9808 0.1951 0.0000
vn -0.1951 -0.9808 0.0000
vn 0.5556 0.8315 0.0000
vn 0.9808 -0.1951 -0.0000
vn 0.5556 -0.8315 0.0000
vn 0.1951 -0.9808 0.0000
vn -0.5556 0.8315 0.0000
vn -0.5556 -0.8315 0.0000
vn 0.0000 0.0000 -1.0000
vn 0.8315 -0.5556 0.0000
vn -0.8315 -0.5556 0.0000
vn 0.8315 0.5556 0.0000
vn -0.1951 0.9808 0.0000
vn -0.9808 -0.1951 -0.0000
vn -0.8315 0.5556 0.0000
vn 0.1951 0.9808 0.0000
usemtl Material
s off
f 12/1/1 10/2/1 8/3/1
f 16/4/1 12/1/1 24/5/1
f 4/6/1 2/7/1 32/8/1
f 20/9/1 18/10/1 24/5/1
f 8/3/1 4/6/1 24/5/1
f 24/5/1 22/11/1 20/9/1
f 28/12/1 26/13/1 32/8/1
f 24/5/1 18/10/1 16/4/1
f 32/8/1 26/13/1 24/5/1
f 4/6/1 32/8/1 24/5/1
f 24/5/1 12/1/1 8/3/1
f 16/4/1 14/14/1 12/1/1
f 32/8/1 30/15/1 28/12/1
f 8/3/1 6/16/1 4/6/1
usemtl Material_NONE
f 10/17/2 7/18/2 8/19/2
f 28/20/3 25/21/3 26/22/3
f 20/23/4 17/24/4 18/25/4
f 4/26/5 5/27/5 3/28/5
f 12/29/6 9/30/6 10/17/6
f 16/31/7 15/32/7 13/33/7
f 10/17/2 9/30/2 7/18/2
f 16/31/7 13/33/7 14/34/7
f 18/25/8 15/32/8 16/31/8
f 32/35/9 31/36/9 29/37/9
f 22/38/10 19/39/10 20/23/10
f 29/40/11 31/41/11 1/42/11
f 12/29/12 13/33/12 11/43/12
f 24/44/13 21/45/13 22/38/13
f 1/42/11 3/46/11 5/47/11
f 8/19/14 7/18/14 5/48/14
f 20/23/4 19/39/4 17/24/4
f 2/49/15 1/50/15 31/36/15
f 4/26/5 6/51/5 5/27/5
f 22/38/10 21/45/10 19/39/10
f 28/20/3 27/52/3 25/21/3
f 12/29/6 11/43/6 9/30/6
f 12/29/12 14/34/12 13/33/12
f 24/44/16 26/22/16 25/21/16
f 30/53/17 27/52/17 28/20/17
f 32/35/9 29/37/9 30/53/9
f 18/25/8 17/24/8 15/32/8
f 4/26/18 1/50/18 2/49/18
f 24/44/16 25/21/16 23/54/16
f 13/55/11 15/56/11 17/57/11
f 1/42/11 5/47/11 13/55/11
f 5/47/11 7/58/11 13/55/11
f 13/55/11 19/59/11 21/60/11
f 21/60/11 23/61/11 29/40/11
f 9/62/11 11/63/11 13/55/11
f 4/26/18 3/28/18 1/50/18
f 17/57/11 19/59/11 13/55/11
f 25/64/11 27/65/11 29/40/11
f 7/58/11 9/62/11 13/55/11
f 24/44/13 23/54/13 21/45/13
f 13/55/11 21/60/11 29/40/11
f 8/19/14 5/48/14 6/66/14
f 29/40/11 1/42/11 13/55/11
f 23/61/11 25/64/11 29/40/11
f 30/53/17 29/37/17 27/52/17
f 2/49/15 31/36/15 32/35/15
